<svg xmlns="http://www.w3.org/2000/svg" width="800" height="800" viewBox="0 0 800 800"><path fill="#A7C91A" d="M0 0h800v800H0z"/><path fill="#FFF" d="M172.86 546.625H820v66.198H172.86z"/><path fill="#FFF" d="M720.222 589.225h-66.198c0-59.76-11.696-117.71-34.765-172.25-11.088-26.216-24.814-51.503-40.797-75.16-15.836-23.44-34.024-45.484-54.058-65.52-20.035-20.033-42.08-38.22-65.52-54.057-23.657-15.982-48.944-29.71-75.16-40.797-54.538-23.067-112.49-34.763-172.25-34.763V80.48c34.497 0 68.98 3.477 102.496 10.334 32.68 6.688 64.825 16.666 95.543 29.658 30.152 12.753 59.23 28.537 86.43 46.912 26.933 18.195 52.257 39.09 75.27 62.103 23.015 23.013 43.908 48.338 62.104 75.27 18.375 27.2 34.16 56.277 46.91 86.43 12.994 30.718 22.973 62.863 29.66 95.543 6.857 33.514 10.335 68 10.335 102.495z"/><path fill="#FFF" d="M172.86-20h66.2v632.823h-66.2z"/><ellipse transform="matrix(0.9966 0.083 -0.083 0.9966 47.8249 -28.0227)" opacity=".2" cx="361.109" cy="561.465" rx="237.833" ry="125.016"/><circle fill="#FFF" cx="217.299" cy="423.116" r="202.272"/><radialGradient id="a" cx="73.939" cy="291.386" r="396.557" gradientUnits="userSpaceOnUse"><stop offset="0" stop-color="#EFEFEF"/><stop offset="1" stop-color="#005789"/></radialGradient><circle opacity=".4" fill="url(#a)" cx="217.299" cy="423.116" r="202.272"/><g opacity=".1"><path fill="#005789" d="M362.858 417.728c.038-3.903-.543-7.854-1.798-11.713l-40.25-123.878c7.463-4.79 17.19-9.674 26.615-13.88-10.8-9.085-22.562-17.06-35.114-23.75-4.844 2.637-9.593 5.457-13.96 8.412-3.23-1.416-6.694-2.382-10.306-2.822-1.484-.18-36.733-4.43-71.665-4.43-34.75 0-72.777 4.208-74.38 4.388-3.87.432-7.57 1.47-11.005 3.017-3.63-2.478-7.506-4.84-11.466-7.07-12.28 6.793-23.777 14.824-34.325 23.927 8.122 3.672 16.724 8.017 23.573 12.493L68.62 406.015c-1.36 4.188-1.93 8.485-1.772 12.71-18.96 10.477-36.096 24.15-49.335 36.17 2.223 14.082 5.898 27.683 10.87 40.64 12.044-12.355 33.657-32.5 57.704-45.422l107.14 77.843c1.144.83 2.327 1.588 3.54 2.27v90.565c0 1.233.124 2.437.354 3.602 6.64.657 13.37.996 20.18.996 5.32 0 10.59-.206 15.806-.61.283-1.284.438-2.617.438-3.986v-90.93c.994-.587 1.968-1.218 2.916-1.906l107.922-78.41c26.01 13.698 49.31 36.06 60.955 48.25 5.124-12.886 8.96-26.425 11.35-40.457-13.974-12.956-32.836-28.314-53.83-39.612zM214.84 498.202l-111.11-80.727-.114-.154 42.473-130.715s37.19-4.16 70.29-4.16 67.213 4.16 67.213 4.16l42.492 130.774L214.84 498.2z"/></g></svg>