<svg height="800" viewBox="0 0 800 800" width="800" xmlns="http://www.w3.org/2000/svg"><g fill="none"><path d="m0 0h800v800h-800z" fill="#00b2ff"/><g transform="translate(240 200)"><path d="m28.9881235 436.464-21.59144892 12.456c-4.45676859 2.571465-7.2027521 7.327064-7.2027521 12.474s2.74598351 9.902535 7.2027521 12.474l35.98574822 20.772c4.4536117 2.572312 9.9406876 2.572312 14.3942993 0l35.9857482-20.772z" fill="#121212"/><path d="m331.268 361.656v74.808l64.775-37.404v-74.808z" fill="#dcdcdc"/><path d="m28.988 361.656 86.366-49.896 64.774 37.44-86.366 49.86z" fill="#dcdcdc"/><path d="m28.988 361.656 21.592-12.456 64.774 37.404-21.592 12.456z" fill="#f24836"/><path d="m28.988 436.464v-74.808l64.774 37.404v74.844z" fill="#ff4e36"/><path d="m439.226 349.2 43.183 24.912 21.591-62.352z" fill="#121212"/><path d="m309.67696 465.588v-41.58l-64.774347-37.404v99.756c.005269 5.141987 2.750888 9.890985 7.203536 12.459695 4.452648 2.568711 9.936584 2.567302 14.387913-.003695l35.985748-20.772c4.449048-2.569673 7.19188-7.316652 7.19715-12.456z" fill="#aa7d6a"/><path d="m244.903 361.656v74.808l64.774-37.404v-74.808z" fill="#dcdcdc"/><path d="m180.128 199.548 215.915 124.704-64.775 37.404-215.914-124.704z" fill="#f6f6f6"/><path d="m180.128 124.704v74.844l-64.774 37.404.18-74.952z" fill="#dcdcdc"/><path d="m180.128 0v124.704l-64.594 37.296-.18-124.596z" fill="#ff4e36"/><path d="m115.353919 37.404 64.774347-37.404 21.591449 12.456c4.456769 2.5714649 7.202752 7.3270636 7.202752 12.474s-2.745983 9.9025351-7.202752 12.474l-35.985748 20.808c-4.453612 2.5723122-9.940688 2.5723122-14.3943 0z" fill="#121212"/><path d="m432.028504 303.444-35.985749 20.772 43.182898 24.984 43.182898-24.948-35.985748-20.772c-4.447181-2.58346-9.934262-2.597183-14.394299-.036z" fill="#aa7d6a"/><g fill="#f6f6f6"><path d="m115.354 311.76 215.914 124.704v-74.808l-215.914-124.704"/><path d="m180.128 199.548 64.775 37.404-64.775 37.404-64.774-37.404z"/><path d="m115.354 236.952 64.774 37.404v74.844l-64.774-37.44z"/></g><path d="m396.042755 399.06v141.336c-.005269 5.139348-2.748101 9.886327-7.197149 12.456l-35.985749 20.808c-4.451328 2.570997-9.935264 2.572406-14.387912.003695-4.452648-2.56871-7.198267-7.317708-7.203536-12.459695v-124.704z" fill="#aa7d6a"/><path d="m28.9881235 436.464-21.59144892 12.456c-4.45676859 2.571465-7.2027521 7.327064-7.2027521 12.474s2.74598351 9.902535 7.2027521 12.474l35.98574822 20.772c4.4536117 2.572312 9.9406876 2.572312 14.3942993 0l35.9857482-20.772z" fill="#121212"/><path d="m331.268 361.656v74.808l64.775-37.404v-74.808z" fill="#ad0000"/><path d="m28.988 361.656 86.366-49.896 64.774 37.44-86.366 49.86z" fill="#f6f6f6"/><path d="m28.988 361.656 21.592-12.456 64.774 37.404-21.592 12.456z" fill="#ba0000"/><path d="m28.988 436.464v-74.808l64.774 37.404v74.844z" fill="#c70000"/><path d="m439.226 349.2 43.183 24.912 21.591-62.352z" fill="#121212"/><path d="m309.67696 465.588v-41.58l-64.774347-37.404v99.756c.005269 5.141987 2.750888 9.890985 7.203536 12.459695 4.452648 2.568711 9.936584 2.567302 14.387913-.003695l35.985748-20.772c4.449048-2.569673 7.19188-7.316652 7.19715-12.456z" fill="#aa7d6a"/><path d="m180.128 124.704v74.844l-64.774 37.404.18-74.952z" fill="#f6f6f6"/><path d="m244.903 361.656v74.808l64.774-37.404v-74.808z" fill="#ad0000"/><path d="m180.128 0v124.704l-64.594 37.296-.18-124.596z" fill="#c70000"/><path d="m180.128 199.548 215.915 124.704-64.775 37.404-215.914-124.704z" fill="#c70000"/><path d="m115.353919 37.404 64.774347-37.404 21.591449 12.456c4.456769 2.5714649 7.202752 7.3270636 7.202752 12.474s-2.745983 9.9025351-7.202752 12.474l-35.985748 20.808c-4.453612 2.5723122-9.940688 2.5723122-14.3943 0z" fill="#121212"/><path d="m432.028504 303.444-35.985749 20.772 43.182898 24.984 43.182898-24.948-35.985748-20.772c-4.447181-2.58346-9.934262-2.597183-14.394299-.036z" fill="#aa7d6a"/><path d="m115.354 311.76 215.914 124.704v-74.808l-215.914-124.704" fill="#c70000"/><path d="m396.042755 399.06v141.336c-.005269 5.139348-2.748101 9.886327-7.197149 12.456l-35.985749 20.808c-4.451328 2.570997-9.935264 2.572406-14.387912.003695-4.452648-2.56871-7.198267-7.317708-7.203536-12.459695v-124.704z" fill="#aa7d6a"/></g></g></svg>