<svg xmlns="http://www.w3.org/2000/svg" width="800" height="800" viewBox="0 0 800 800"><path fill="#A7C91A" d="M0 0h800v800H0z"/><ellipse transform="matrix(0.9966 0.083 -0.083 0.9966 55.746 -42.6525)" opacity=".2" cx="541.109" cy="649.465" rx="237.833" ry="125.016"/><circle fill="#FFF" cx="397.299" cy="511.116" r="202.272"/><radialGradient id="a" cx="253.939" cy="379.386" r="396.557" gradientUnits="userSpaceOnUse"><stop offset="0" stop-color="#EFEFEF"/><stop offset="1" stop-color="#005789"/></radialGradient><circle opacity=".4" fill="url(#a)" cx="397.299" cy="511.116" r="202.272"/><path fill="#005789" d="M542.858 505.728c.038-3.903-.543-7.854-1.798-11.713l-40.25-123.878c7.463-4.79 17.19-9.674 26.615-13.88-10.8-9.085-22.562-17.06-35.114-23.75-4.843 2.637-9.593 5.457-13.96 8.412-3.23-1.417-6.693-2.383-10.305-2.823-1.484-.18-36.733-4.43-71.665-4.43-34.75 0-72.777 4.208-74.38 4.388-3.87.432-7.57 1.47-11.005 3.017-3.63-2.478-7.506-4.84-11.466-7.07-12.28 6.793-23.778 14.824-34.326 23.927 8.122 3.67 16.724 8.016 23.573 12.492L248.62 494.015c-1.36 4.188-1.93 8.485-1.772 12.71-18.96 10.477-36.096 24.15-49.335 36.17 2.223 14.082 5.898 27.683 10.87 40.64 12.044-12.355 33.657-32.5 57.704-45.422l107.14 77.843c1.144.83 2.327 1.588 3.54 2.27v90.565c0 1.234.124 2.438.354 3.603 6.64.657 13.37.996 20.18.996 5.32 0 10.59-.207 15.807-.61.283-1.285.438-2.618.438-3.987v-90.93c.993-.587 1.968-1.218 2.915-1.906l107.92-78.41c26.012 13.698 49.312 36.06 60.956 48.25 5.124-12.886 8.96-26.425 11.35-40.457-13.973-12.956-32.835-28.314-53.828-39.612zm-148.016 80.474L283.73 505.475l-.114-.154 42.473-130.714s37.19-4.16 70.29-4.16c33.1 0 67.213 4.16 67.213 4.16l42.49 130.774-111.24 80.82z" opacity=".1"/></svg>