<?xml version="1.0" encoding="utf-8"?>
<!-- Generator: Adobe Illustrator 19.2.1, SVG Export Plug-In . SVG Version: 6.00 Build 0)  -->
<svg version="1.1" id="Layer_1" xmlns="http://www.w3.org/2000/svg" xmlns:xlink="http://www.w3.org/1999/xlink" x="0px" y="0px"
	 viewBox="0 0 1000 1000" style="enable-background:new 0 0 1000 1000;" xml:space="preserve">
<style type="text/css">
	.st0{fill:#204583;}
	.st1{fill:url(#SVGID_1_);}
	.st2{fill:#F6F6F6;}
	.st3{fill:#E6E6E6;}
	.st4{fill:#E20613;}
	.st5{fill:#E7B3C3;}
	.st6{opacity:0.7;fill:#E20613;}
	.st7{opacity:0.4;fill:#E20613;}
	.st8{opacity:0.4;}
</style>
<rect x="-121.9" y="-77" class="st0" width="1154" height="1154"/>
<linearGradient id="SVGID_1_" gradientUnits="userSpaceOnUse" x1="-124.0828" y1="830" x2="-124.0828" y2="1147.0691" gradientTransform="matrix(-1 0 0 1 546.9172 0)">
	<stop  offset="0" style="stop-color:#E7B3C3"/>
	<stop  offset="0.2462" style="stop-color:#EDCED8;stop-opacity:0.7538"/>
	<stop  offset="0.5119" style="stop-color:#F2E4E8;stop-opacity:0.4881"/>
	<stop  offset="0.7676" style="stop-color:#F5F1F2;stop-opacity:0.2324"/>
	<stop  offset="1" style="stop-color:#F6F6F6;stop-opacity:0"/>
</linearGradient>
<polygon class="st1" points="436,988 436,830 468,830 468,988 499,988 499,830 531,830 531,988 562,988 562,830 594,830 594,988 
	626,988 626,830 657,830 657,988 688,988 688,830 720,830 720,988 751,988 751,831 782,831 782,988 814,988 814,830 846,830 
	846,988 877,988 877,831 909,831 909,988 936,988 936,1045 406,1045 406,988 "/>
<rect x="640.5" y="147.7" transform="matrix(-1 -4.490065e-11 4.490065e-11 -1 1345.2133 368.9352)" class="st2" width="64.3" height="73.5"/>
<path class="st2" d="M512.4,403.9c3.7-94.9,73.5-170.6,159-170.6s155.3,75.7,159,170.6H512.4z"/>
<path class="st2" d="M635.2,131h61.4c-0.1,5.1-0.5,10.3-0.8,15.4c-23.9,2.5-60.6,4.1-60.6,4.1c-4.5,0-8.2-3.7-8.2-8.2v-3.1
	C626.9,134.7,630.7,131,635.2,131z"/>
<path class="st3" d="M497.2,436.5h348.3c9.1,0,16.6-7.5,16.6-16.6v0c0-9.1-7.5-16.6-16.6-16.6H497.2c-9.1,0-16.6,7.5-16.6,16.6v0
	C480.6,429,488,436.5,497.2,436.5z"/>
<path class="st3" d="M466.1,576H877c11,0,20-9,20-20v0c0-11-9-20-20-20H466.1c-11,0-20,9-20,20v0C446.1,567,455.1,576,466.1,576z"/>
<rect x="497.3" y="436.5" transform="matrix(-1 -4.489576e-11 4.489576e-11 -1 1342.8717 972.5934)" class="st2" width="348.3" height="99.5"/>
<rect x="464.7" y="576" transform="matrix(-1 -4.489798e-11 4.489798e-11 -1 1345.641 1283.3337)" class="st2" width="416.2" height="131.3"/>
<rect x="608.7" y="221.2" transform="matrix(-1 -4.489088e-11 4.489088e-11 -1 1345.1068 468.8933)" class="st3" width="127.7" height="26.6"/>
<path class="st2" d="M663.6,73.3C668.1,63.9,664,61,664,61s-5.3-7.9-2.5-19.4c2.4-9.7,7.4-11,8.9-11.1v0c0,0,0.1,0,0.2,0
	c0.1,0,0.2,0,0.2,0l0,0c1.5,0.2,6.5,1.5,8.9,11.1c2.9,11.5-2.5,19.4-2.5,19.4s-4.1,2.9,0.4,12.2s6.1,12.2,5.7,24.1
	c-0.4,12.6,0,20.5,0,20.5l-11.9,0.1l0,0.3l-13.7-0.5c0,0,0.3-7.8-0.1-20.3C657.5,85.5,659.1,82.6,663.6,73.3z"/>
<polygon class="st2" points="683.8,117.5 694.2,131.4 647.8,131.7 658,117.5 "/>
<path class="st4" d="M675,118.5c0,0-2.7-9.1-2.3-20.1c0.4-11.9-2.4-13.1-4.1-23.6c-1.5-9.5,0.3-15.5,0.3-15.5s3.1-6.3,0.3-17.8
	c-1.3-5.3-1.5-5.8-2.7-9c1.7-1.5,3.3-1.9,4.1-1.9v0c0,0,0.1,0,0.2,0c0.1,0,0.2,0,0.2,0l0,0c1.5,0.2,6.5,1.5,8.9,11.1
	c2.9,11.5-2.5,19.4-2.5,19.4s-4.1,2.9,0.4,12.2s6.1,12.2,5.7,24.1c-0.4,11-0.1,18.5,0,20.2h0.2l10.4,13.9l-8.4,0.1L675,118.5z"/>
<path class="st5" d="M677.4,143.8c4.5,0,8.2-4.1,8.2-9.2v-1.2c0-0.9-0.1-1.7-0.3-2.5h22.1c4.5,0,8.2,4.1,8.2,9.2v1.2
	c0,5.1-3.7,9.2-8.2,9.2H635c-3.7,0-7.4-3-7.9-6.8L677.4,143.8z"/>
<path class="st5" d="M640.3,150.3h64.5l0,70.9l-35.9,0.1C687.4,177.4,673.7,156.6,640.3,150.3z"/>
<polygon class="st3" points="428,775.4 615.8,775.4 655,753.3 689.7,775.4 920.8,775.4 920.8,706.6 428,706.6 "/>
<polygon class="st2" points="407.5,831.1 936.9,831.1 936.9,774.1 695.1,774.1 655.8,753.3 612,774.1 407.5,774.1 "/>
<polygon class="st5" points="654.9,755.2 519.4,831.4 499.9,831.4 672.4,724.2 844.8,831.4 781.6,831.3 "/>
<path class="st6" d="M795.1,732.4c-40.2,3.6-69.3,2.7-82.4-0.7c-45.5-12-34.9-70.3-32.3-84.3c2.5-14.1-21.5-34.9-21.5-34.9l27.7-15
	c15-14.1-16.8-10.3-33.5-27.1c-11.5-11.6,39.3-72.2,3.8-81.7c-51.7-13.4-39.6-32.1-10.8-69c23.4-30,39.1-57.6,46.2-87.7
	c7.1-30.1-9.4-74.3-22.2-98.8c-5-9.6,2.6-30.8,3.7-33.2c1.3-3,2.5-5.9,3.2-8.9h27.6l0.1,30.4l31.6-0.1l0,26.5l-2.2-0.1
	c54.5,26.2,93.3,85.3,96.3,155.3h20c6.3,0,11.5,5.3,11.5,11.7l0.1,10.4c0,6.3-5.2,11.9-11.5,11.9h-4.7l-0.3,99h40
	c6.3,0,11.4,5.1,11.4,11.4v17c0,6.3-5.1,11.5-11.4,11.5H881v130h39.8l-0.1,68H937l0,57.2l-60-0.2
	C875.7,826.8,827.6,729.5,795.1,732.4z"/>
<path class="st4" d="M908.5,831.1L908.4,976c0,0-5.3-98.6-22.8-145L908.5,831.1z"/>
<path class="st4" d="M704.7,190.5l0-39.9c0,0,11,1.7,11-9.2c-0.1-11.1-8.3-10.4-8.3-10.4h-22c0,0,1.6,12.4-8,12.9
	c0,0,6.7,25.9-0.3,46.6c0,0-8.8,21.8-8.4,30.7l36.1-0.1"/>
<g>
	<path class="st4" d="M633.5,436.5l212.3,0l-0.2,99.4c-45.4-32.3-127.2-62.3-221.6-64C618.4,462.9,623.2,451.1,633.5,436.5z"/>
</g>
<path class="st5" d="M633.6,436.5c-10.4,14.6-15.3,26.4-9.7,35.4c-4.1-0.1-8.3-0.2-12.4-0.2c-40.7,0-79.2,3.9-114.2,10.7l0-45.7
	L633.6,436.5z"/>
<path class="st5" d="M660.2,576c17,11,39.5,9.2,26.4,21.5l-27.1,14.7c-14.4-1-29.1-1.6-44.2-1.6c-55.6,0-107.3,7.4-150.3,20V576
	H660.2z"/>
<g>
	<path class="st4" d="M686.6,597.5c13-12.3-9.4-10.5-26.4-21.5h220.7l0.1,130.7c-26.8-46.6-113.6-86.6-221.5-94.4L686.6,597.5z"/>
</g>
<path class="st7" d="M646,419.8c4.3-5.5,8.7-10.8,12.4-16.8h192c6.3,0,11.6,5.4,11.6,11.7l0.1,10.2c0,6.3-5.3,11.6-11.7,11.6
	l-216.8,0C637.2,431,641.3,425.9,646,419.8z"/>
<path class="st7" d="M457.2,576h202.9c-2.5-2-4.8-3.4-7-5.6c-5-5,1.6-18.8,7.9-34.2l224.4-0.4c6.3,0,11.6,5.2,11.6,11.6v17.1
	c0,6.4-5.2,11.6-11.6,11.6H457.6c-0.9,0-1.7-0.1-2.5-0.2C455.8,575.9,456.5,576,457.2,576z"/>
<g class="st8">
	<path class="st4" d="M844.3,774c-15.8-23-34.3-43-49.7-41.7c-40.2,3.6-69.1,2.4-82.1-0.9c-15.6-4-24.7-14.4-29.7-25.4H921v68H844.3
		z"/>
</g>
<path class="st7" d="M668.6,221.3l67.8-0.1l0,26.6l-59.3,0.1c-2.3-5.4-4.6-10.3-6.9-14.6C668.6,230.1,668.2,225.9,668.6,221.3z"/>
</svg>
