<?xml version="1.0" encoding="utf-8"?>
<!-- Generator: Adobe Illustrator 19.2.1, SVG Export Plug-In . SVG Version: 6.00 Build 0)  -->
<svg version="1.1" id="Layer_1" xmlns="http://www.w3.org/2000/svg" xmlns:xlink="http://www.w3.org/1999/xlink" x="0px" y="0px"
	 viewBox="0 0 750 1000" style="enable-background:new 0 0 750 1000;" xml:space="preserve">
<style type="text/css">
	.st0{fill:#204583;}
	.st1{fill:url(#SVGID_1_);}
	.st2{fill:#F6F6F6;}
	.st3{fill:#E6E6E6;}
	.st4{fill:#E20613;}
	.st5{fill:#E7B3C3;}
	.st6{opacity:0.7;fill:#E20613;enable-background:new    ;}
	.st7{opacity:0.4;fill:#E20613;enable-background:new    ;}
	.st8{opacity:0.4;}
</style>
<rect x="-48.1" class="st0" width="1000" height="1000"/>
<linearGradient id="SVGID_1_" gradientUnits="userSpaceOnUse" x1="95.9672" y1="170" x2="95.9672" y2="-147.0691" gradientTransform="matrix(-1 0 0 -1 546.9172 1000)">
	<stop  offset="0" style="stop-color:#E7B3C3"/>
	<stop  offset="0.2462" style="stop-color:#EDCED8;stop-opacity:0.7538"/>
	<stop  offset="0.5119" style="stop-color:#F2E4E8;stop-opacity:0.4881"/>
	<stop  offset="0.7676" style="stop-color:#F5F1F2;stop-opacity:0.2324"/>
	<stop  offset="1" style="stop-color:#F6F6F6;stop-opacity:0"/>
</linearGradient>
<polygon class="st1" points="215.9,988 215.9,830 247.9,830 247.9,988 278.9,988 278.9,830 310.9,830 310.9,988 341.9,988 
	341.9,830 373.9,830 373.9,988 405.9,988 405.9,830 436.9,830 436.9,988 467.9,988 467.9,830 499.9,830 499.9,988 530.9,988 
	530.9,831 561.9,831 561.9,988 593.9,988 593.9,830 625.9,830 625.9,988 656.9,988 656.9,831 688.9,831 688.9,988 715.9,988 
	715.9,1045 185.9,1045 185.9,988 "/>
<rect x="420.9" y="147.7" class="st2" width="64.3" height="73.5"/>
<path class="st2" d="M292.8,403.9c3.7-94.9,73.5-170.6,159-170.6S607.2,309,610.9,403.9H292.8z"/>
<path class="st2" d="M415.6,131h61.3c-0.1,5.1-0.5,10.3-0.8,15.4c-23.9,2.5-60.6,4.1-60.6,4.1c-4.5,0-8.2-3.7-8.2-8.2v-3.1
	C407.3,134.7,411.1,131,415.6,131z"/>
<path class="st3" d="M277.6,436.5h348.3c9.1,0,16.6-7.5,16.6-16.6l0,0c0-9.1-7.5-16.6-16.6-16.6H277.6c-9.1,0-16.6,7.5-16.6,16.6
	l0,0C261,429,268.4,436.5,277.6,436.5z"/>
<path class="st3" d="M246.5,576h410.9c11,0,20-9,20-20l0,0c0-11-9-20-20-20H246.5c-11,0-20,9-20,20l0,0
	C226.5,567,235.5,576,246.5,576z"/>
<rect x="277.7" y="436.6" class="st2" width="348.3" height="99.5"/>
<rect x="245.2" y="576" class="st2" width="416.2" height="131.3"/>
<rect x="389.2" y="221.1" class="st3" width="127.7" height="26.6"/>
<path class="st2" d="M444,73.3c4.5-9.4,0.4-12.2,0.4-12.2s-5.3-7.9-2.5-19.4c2.4-9.7,7.4-11,8.9-11.1l0,0c0,0,0.1,0,0.2,0
	c0.1,0,0.2,0,0.2,0l0,0c1.5,0.2,6.5,1.5,8.9,11.1c3.1,11.4-2.2,19.3-2.2,19.3s-4.1,2.9,0.4,12.2c4.5,9.4,6.1,12.2,5.7,24.1
	c-0.4,12.6,0,20.5,0,20.5l-11.9,0.1v0.3l-13.7-0.5c0,0,0.3-7.8-0.1-20.3C437.9,85.5,439.5,82.6,444,73.3z"/>
<polygon class="st2" points="464.2,117.5 474.6,131.4 428.2,131.7 438.4,117.5 "/>
<path class="st4" d="M455.4,118.5c0,0-2.7-9.1-2.3-20.1c0.4-11.9-2.4-13.1-4.1-23.6c-1.5-9.5,0.3-15.5,0.3-15.5s3.1-6.3,0.3-17.8
	c-1.3-5.3-1.5-5.8-2.7-9c1.7-1.5,3.3-1.9,4.1-1.9l0,0c0,0,0.1,0,0.2,0c0.1,0,0.2,0,0.2,0l0,0c1.5,0.2,6.5,1.5,8.9,11.1
	c2.9,11.4-2.4,19.3-2.4,19.3s-4.1,2.9,0.4,12.2c4.5,9.4,6.1,12.2,5.7,24.1c-0.4,11-0.1,18.5,0,20.2h0.2l10.4,13.9l-8.4,0.1
	L455.4,118.5z"/>
<path class="st5" d="M457.8,143.8c4.5,0,8.2-4.1,8.2-9.2v-1.2c0-0.9-0.1-1.7-0.3-2.5h22.1c4.5,0,8.2,4.1,8.2,9.2v1.2
	c0,5.1-3.7,9.2-8.2,9.2h-72.4c-3.7,0-7.4-3-7.9-6.8L457.8,143.8z"/>
<path class="st5" d="M420.7,150.3h64.5v70.9l-35.9,0.1C467.8,177.4,454.1,156.6,420.7,150.3z"/>
<polygon class="st3" points="208.4,775.4 396.2,775.4 435.4,753.3 470.1,775.4 701.2,775.4 701.2,706.6 208.4,706.6 "/>
<polygon class="st2" points="187.9,831.1 717.3,831.1 717.3,774.1 475.5,774.1 436.2,753.3 392.4,774.1 187.9,774.1 "/>
<polygon class="st5" points="435.3,755.2 299.8,831.4 280.3,831.4 452.8,724.2 625.2,831.4 562,831.3 "/>
<path class="st6" d="M575.5,732.4c-40.2,3.6-69.3,2.7-82.4-0.7c-45.5-12-34.9-70.3-32.3-84.3c2.5-14.1-21.5-34.9-21.5-34.9l27.7-15
	c15-14.1-16.8-10.3-33.5-27.1c-11.5-11.6,39.3-72.2,3.8-81.7c-51.7-13.4-39.6-32.1-10.8-69c23.4-30,39.1-57.6,46.2-87.7
	c7.1-30.1-9.4-74.3-22.2-98.8c-5-9.6,2.6-30.8,3.7-33.2c1.3-3,2.5-5.9,3.2-8.9H485l0.1,30.4l31.6-0.1v26.5l-2.2-0.1
	c54.6,26,93.4,85.2,96.4,155.2h20c6.3,0,11.5,5.3,11.5,11.7l0.1,10.4c0,6.3-5.2,11.9-11.5,11.9h-4.7l-0.3,99h40
	c6.3,0,10.9,5.1,10.9,11.4v17c0,6.3-4.6,11.5-10.9,11.5h-5.1v130h40.3l-0.1,68h16.2v57.2l-60-0.2C656.1,826.8,608,729.5,575.5,732.4
	z"/>
<path class="st4" d="M688.9,831.1L688.8,976c0,0-5.3-98.6-22.8-145L688.9,831.1z"/>
<path class="st4" d="M485.1,190.5v-39.9c0,0,11,1.7,11-9.2c-0.1-11.1-8.3-10.4-8.3-10.4h-22c0,0,1.6,12.4-8,12.9
	c0,0,6.7,25.9-0.3,46.6c0,0-8.8,21.8-8.4,30.7l36.1-0.1"/>
<g>
	<path class="st4" d="M413.9,436.5h212.3l-0.2,99.4c-45.4-32.3-127.2-62.3-221.6-64C398.8,462.9,403.6,451.1,413.9,436.5z"/>
</g>
<path class="st5" d="M414,436.5c-10.4,14.6-15.3,26.4-9.7,35.4c-4.1-0.1-8.3-0.2-12.4-0.2c-40.7,0-79.2,3.9-114.2,10.7v-45.7
	L414,436.5z"/>
<path class="st5" d="M440.6,576c17,11,39.5,9.2,26.4,21.5l-27.1,14.7c-14.4-1-29.3-1.6-44.4-1.6c-55.6,0-107.5,7.4-150.5,20V576
	H440.6z"/>
<g>
	<path class="st4" d="M467,597.5c13-12.3-9.4-10.5-26.4-21.5h220.7l0.1,130.7c-26.8-46.6-113.6-86.6-221.5-94.4L467,597.5z"/>
</g>
<path class="st7" d="M426.4,419.8c4.3-5.5,8.7-10.8,12.4-16.8h192c6.3,0,11.6,5.4,11.6,11.7l0.1,10.2c0,6.3-5.3,11.6-11.7,11.6H414
	C417.6,431,421.7,425.9,426.4,419.8z"/>
<path class="st7" d="M237.6,576h202.9c-2.5-2-4.8-3.4-7-5.6c-5-5,1.6-18.8,7.9-34.2l224.1-0.4c6.3,0,11.3,5.2,11.3,11.6v17.1
	c0,6.4-4.7,11.6-11.1,11.6H238c-0.9,0-1.7-0.1-2.5-0.2C236.2,575.9,236.9,576,237.6,576z"/>
<g class="st8">
	<path class="st4" d="M624.7,774c-15.8-23-34.3-43-49.7-41.7c-40.2,3.6-69.1,2.4-82.1-0.9c-15.6-4-24.7-14.4-29.7-25.4h237.7v68
		L624.7,774L624.7,774z"/>
</g>
<path class="st7" d="M449,221.3l67.8-0.1v26.6l-59.3,0.1c-2.3-5.4-4.6-10.3-6.9-14.6C449,230.1,448.6,225.9,449,221.3z"/>
</svg>
