<?xml version="1.0" encoding="utf-8"?>
<!-- Generator: Adobe Illustrator 19.2.1, SVG Export Plug-In . SVG Version: 6.00 Build 0)  -->
<svg version="1.1" id="Layer_1" xmlns="http://www.w3.org/2000/svg" xmlns:xlink="http://www.w3.org/1999/xlink" x="0px" y="0px"
	 viewBox="0 0 750 1000" style="enable-background:new 0 0 750 1000;" xml:space="preserve">
<style type="text/css">
	.st0{fill:#2274B2;}
	.st1{fill:#EAEAEA;}
	.st2{fill:url(#SVGID_1_);}
	.st3{opacity:0.8;fill:#B03F20;}
	.st4{opacity:0.75;fill:url(#SVGID_2_);}
	.st5{fill:none;stroke:#E9E9EA;stroke-width:30;stroke-miterlimit:10;}
	.st6{fill:#FFFFFF;}
	.st7{fill:#E9E9EA;}
	.st8{fill:#333333;}
</style>
<rect class="st0" width="1001" height="1000"/>
<path class="st1" d="M496.7,451.5c124.5,0,270.2,92.4,354.1,154.6v148.6c-83.9,62.2-229.6,154.6-354.1,154.6
	c-187.6,0-423.3-209.8-423.3-209.8v-38.1C73.5,661.3,309.1,451.5,496.7,451.5z"/>
<linearGradient id="SVGID_1_" gradientUnits="userSpaceOnUse" x1="289.0144" y1="914.9239" x2="291.1765" y2="408.4818" gradientTransform="matrix(-1 0 0 1 751.3984 0)">
	<stop  offset="0" style="stop-color:#F1F1F1;stop-opacity:0"/>
	<stop  offset="0.1813" style="stop-color:#EDEFF0;stop-opacity:0.1088"/>
	<stop  offset="0.3718" style="stop-color:#E0E9ED;stop-opacity:0.2231"/>
	<stop  offset="0.5666" style="stop-color:#CBE0E9;stop-opacity:0.3399"/>
	<stop  offset="0.7643" style="stop-color:#AED2E2;stop-opacity:0.4586"/>
	<stop  offset="0.9624" style="stop-color:#88C1DA;stop-opacity:0.5774"/>
	<stop  offset="1" style="stop-color:#80BED9;stop-opacity:0.6"/>
</linearGradient>
<path class="st2" d="M495.9,451.3c124.5,0,270.2,92.4,354.1,154.6v148.6C766,816.7,620.4,909.1,495.9,909.1
	c-187.6,0-423.3-209.8-423.3-209.8v-38.1C72.6,661.2,308.3,451.3,495.9,451.3z"/>
<circle class="st3" cx="497.8" cy="682.6" r="178.1"/>
<linearGradient id="SVGID_2_" gradientUnits="userSpaceOnUse" x1="255.3778" y1="851.5745" x2="252.2955" y2="495.3493" gradientTransform="matrix(-1 0 0 1 751.3984 0)">
	<stop  offset="0" style="stop-color:#F1F1F1;stop-opacity:0"/>
	<stop  offset="1" style="stop-color:#F3DD35;stop-opacity:0.3"/>
</linearGradient>
<circle class="st4" cx="497.5" cy="682.3" r="178.1"/>
<circle class="st5" cx="534.8" cy="832.4" r="11.4"/>
<circle class="st6" cx="497.7" cy="684.8" r="46.9"/>
<circle class="st5" cx="575" cy="549.8" r="11.4"/>
<g>
	<path class="st7" d="M457.5,563c0.1-0.3,0.3-0.6,0.4-1c9.5,4.9,19.2,10.8,29.2,17.4c20.2,13.6,41.1,30.8,61.2,50.9v0
		c26.8,26.8,48.4,54.9,63.3,81.2c7.5,13.1,13.3,25.8,17.3,37.6c4,11.8,6.1,22.8,6.1,32.6c0,6-0.8,11.6-2.6,16.7
		c-0.9,2.5-2,4.9-3.3,7.1c-1.4,2.2-3,4.3-4.8,6.1c-1.8,1.8-3.9,3.4-6.1,4.8c-3.3,2-7,3.5-11,4.5c-4,1-8.3,1.4-12.8,1.4
		c-9.8,0-20.8-2.1-32.6-6.1c-1.4-0.5-2.9-1-4.4-1.5c1.1-2.4,2.1-4.9,3.1-7.5c1.3,0.5,2.6,0.9,3.9,1.4c11.2,3.8,21.4,5.7,30,5.7
		c5.3,0,10-0.7,14-2.1c2-0.7,3.9-1.6,5.6-2.6c1.7-1,3.2-2.2,4.6-3.6c1.4-1.4,2.6-2.9,3.6-4.6c1.5-2.5,2.7-5.4,3.5-8.7
		c0.8-3.3,1.2-6.9,1.2-10.9c0-8.6-1.9-18.8-5.7-30c-5.6-16.8-15.4-35.8-28.7-55.6c-13.3-19.8-30.2-40.3-49.9-60l2.9-2.9l-2.9,2.9
		c-26.3-26.3-54-47.5-79.5-62c-2.7-1.6-5.5-3-8.1-4.4C455.8,567.3,456.7,565.1,457.5,563z"/>
</g>
<g>
	<path class="st7" d="M387,634.4c-1-1.9-2-3.7-2.9-5.6c-0.3-0.6-0.6-1.1-0.8-1.7c12.4-4.1,26.1-7.6,40.9-10.3
		c22.8-4.1,48.1-6.4,74.8-6.4c24.8,0,48.4,2,69.9,5.6c16.1,2.7,31.1,6.3,44.5,10.7c10,3.3,19.2,7,27.3,11.1
		c6.1,3.1,11.6,6.4,16.5,9.9c7.3,5.2,13.2,11,17.3,17.2c2,3.1,3.7,6.3,4.7,9.7c1.1,3.3,1.7,6.8,1.7,10.3c0,2.8-0.4,5.5-1,8.2
		c-1.3,5-3.7,9.8-7.1,14.3c-3,3.9-6.7,7.7-11,11.2c-7.6,6.2-17.1,11.8-28.2,16.7c-0.2,0.1-0.5,0.2-0.7,0.3c-1-2.4-2-4.9-3.2-7.4
		c2.6-1.1,5-2.3,7.4-3.5c5.8-2.9,10.9-6,15.4-9.2c6.7-4.8,11.8-9.9,15.2-15.1c1.7-2.6,3-5.2,3.8-7.7c0.8-2.6,1.3-5.2,1.3-7.8
		c0-2.1-0.3-4.1-0.8-6.2c-1-3.8-2.9-7.7-5.8-11.5c-2.5-3.3-5.7-6.6-9.6-9.8c-6.8-5.6-15.7-10.9-26.3-15.6
		c-15.9-7.1-35.6-12.9-57.9-17c-22.3-4-47.2-6.3-73.4-6.3c-24.3,0-47.5,2-68.6,5.5C414.6,626.7,400,630.2,387,634.4
		C387,634.4,387,634.4,387,634.4z"/>
</g>
<path class="st7" d="M318.1,676.6c1.3-5,3.7-9.8,7.1-14.3c3-3.9,6.7-7.7,11-11.2c6.8-5.5,15.1-10.6,24.7-15.1
	c1.1,2.4,2.2,4.8,3.4,7.3c-1.2,0.6-2.4,1.1-3.5,1.7c-5.8,2.9-10.9,6-15.4,9.2c-6.7,4.8-11.8,9.9-15.2,15.1c-1.7,2.6-3,5.2-3.8,7.7
	c-0.8,2.6-1.3,5.2-1.3,7.8c0,2.1,0.3,4.1,0.8,6.2c1,3.8,2.9,7.7,5.8,11.5c2.5,3.3,5.7,6.6,9.6,9.8c6.3,5.2,14.5,10.1,24.1,14.5
	c-1.1,2.5-2.2,5-3.4,7.3c-1.6-0.8-3.2-1.5-4.8-2.3c-6.1-3.1-11.6-6.4-16.5-9.9c-7.3-5.2-13.2-11-17.3-17.2c-2-3.1-3.7-6.3-4.7-9.7
	c-1.1-3.3-1.7-6.8-1.7-10.3C317,682.1,317.4,679.3,318.1,676.6z"/>
<g>
	<path class="st7" d="M383.9,741.3c0.8-2.2,1.6-4.3,2.5-6.3c11.8,3.9,25,7.2,39.2,9.8c22.3,4,47.2,6.3,73.4,6.3
		c24.3,0,47.5-2,68.6-5.5c14-2.3,27.1-5.4,38.9-9c0.6,1.5,1.2,3,1.8,4.5c0.4,1,0.8,2.1,1.2,3.1c-11,3.4-22.9,6.3-35.7,8.6
		c-22.8,4.1-48.1,6.4-74.8,6.4c-24.8,0-48.4-2-69.9-5.6c-16.1-2.7-31.1-6.3-44.5-10.7c-0.4-0.1-0.8-0.3-1.1-0.4
		C383.6,742.2,383.7,741.7,383.9,741.3z"/>
</g>
<g>
	<path class="st7" d="M437,609.2c-4,22.3-6.3,47.2-6.3,73.4c0,24.3,2,47.5,5.5,68.6c2.5,14.8,5.7,28.5,9.6,40.9
		c-1.6,0.8-3.2,1.5-4.7,2.3c-0.9,0.4-1.8,0.8-2.6,1.2c-3.7-11.6-6.9-24.4-9.3-38c-4.1-22.8-6.4-48.1-6.4-74.8
		c0-24.8,2-48.4,5.6-69.9c2.7-16.1,6.3-31.1,10.7-44.5c3.3-10,7-19.2,11.1-27.3c3.1-6.1,6.4-11.6,9.9-16.5
		c5.2-7.3,11-13.2,17.2-17.3c3.1-2,6.3-3.7,9.7-4.7c3.3-1.1,6.8-1.7,10.3-1.7c2.8,0,5.5,0.4,8.2,1c5,1.3,9.8,3.7,14.3,7.1
		c3.9,3,7.7,6.7,11.2,11c6,7.3,11.4,16.5,16.2,27.2c-2.5,0.9-5,1.9-7.5,3c-0.9-1.9-1.7-3.7-2.6-5.5c-2.9-5.8-6-10.9-9.2-15.4
		c-4.8-6.7-9.9-11.8-15.1-15.2c-2.6-1.7-5.2-3-7.7-3.8c-2.6-0.8-5.2-1.3-7.8-1.3c-2.1,0-4.1,0.3-6.2,0.8c-3.8,1-7.7,2.9-11.5,5.8
		c-3.3,2.5-6.6,5.7-9.8,9.6c-5.6,6.8-10.9,15.7-15.6,26.3C446.9,567.2,441,586.9,437,609.2z"/>
</g>
<circle class="st5" cx="365.5" cy="610.7" r="11.4"/>
<g>
	<path class="st7" d="M628.8,583.2c0-5.3-0.7-10-2.1-14c-0.7-2-1.6-3.9-2.6-5.6c-1-1.7-2.2-3.2-3.6-4.6c-1.4-1.4-2.9-2.6-4.6-3.6
		c-2.5-1.5-5.4-2.7-8.7-3.5c-3.3-0.8-6.9-1.2-10.9-1.2c-4.3,0-8.9,0.5-13.9,1.4c0.3-0.8,0.5-1.7,0.5-2.6c0-2-0.8-3.9-2.1-5.3
		c5.4-1,10.6-1.6,15.5-1.6c6,0,11.6,0.8,16.7,2.6c2.5,0.9,4.9,2,7.1,3.3c2.2,1.4,4.3,3,6.1,4.8c1.8,1.8,3.4,3.9,4.8,6.1
		c2,3.3,3.5,7,4.5,11c1,4,1.4,8.3,1.4,12.8c0,9.8-2.1,20.8-6.1,32.6c-0.9,2.5-1.8,5.1-2.8,7.7c-2.4-1-4.9-2-7.5-3
		c1-2.5,1.9-5,2.7-7.4C626.9,602,628.8,591.8,628.8,583.2z"/>
	<path class="st7" d="M364.4,748.1c6-17.7,16.1-37.3,29.7-57.5c13.6-20.2,30.8-41.1,50.9-61.2c26.8-26.8,54.9-48.4,81.2-63.3
		c13.1-7.5,25.8-13.3,37.6-17.3c1.5-0.5,2.9-1,4.4-1.4c-0.2,0.7-0.3,1.4-0.3,2.1c0,2.2,1,4.3,2.5,5.6c-1.3,0.4-2.7,0.8-4,1.3
		c-16.8,5.6-35.8,15.4-55.6,28.7c-19.8,13.3-40.3,30.2-60,49.9c-26.3,26.3-47.5,54-62,79.5c-7.3,12.7-12.9,24.9-16.6,36.1
		c-3.8,11.2-5.7,21.4-5.7,30c0,5.3,0.7,10,2.1,14c0.7,2,1.6,3.9,2.6,5.6c1,1.7,2.2,3.2,3.6,4.6c1.4,1.4,2.9,2.6,4.6,3.6
		c2.5,1.5,5.4,2.7,8.7,3.5c3.3,0.8,6.9,1.2,10.9,1.2c8.6,0,18.8-1.9,30-5.7c16.8-5.6,35.8-15.4,55.6-28.7
		c19.8-13.3,40.3-30.2,60-49.9c26.3-26.3,47.5-54,62-79.5c1.3-2.3,2.6-4.6,3.8-6.8c2.6,1,5.1,2,7.6,3c-4.8,9.1-10.4,18.4-16.7,27.8
		c-13.6,20.2-30.8,41.1-50.9,61.2c-26.8,26.8-54.9,48.4-81.2,63.3c-13.1,7.5-25.8,13.3-37.6,17.3c-11.8,4-22.8,6.1-32.6,6.1
		c-6,0-11.6-0.8-16.7-2.6c-2.5-0.9-4.9-2-7.1-3.3c-2.2-1.4-4.3-3-6.1-4.8c-1.8-1.8-3.4-3.9-4.8-6.1c-2-3.3-3.5-7-4.5-11
		c-1-4-1.4-8.3-1.4-12.8C358.3,770.8,360.4,759.9,364.4,748.1z"/>
</g>
<g>
	<path class="st7" d="M427,557.4c-11.2-3.8-21.4-5.7-30-5.7c-5.3,0-10,0.7-14,2.1c-2,0.7-3.9,1.6-5.6,2.6c-1.7,1-3.2,2.2-4.6,3.6
		c-1.4,1.4-2.6,2.9-3.6,4.6c-1.5,2.5-2.7,5.4-3.5,8.7c-0.8,3.3-1.2,6.9-1.2,10.9c0,5.5,0.8,11.6,2.3,18.2c-0.5-0.1-1.1-0.2-1.7-0.2
		c-2.4,0-4.5,1-6.1,2.6c-1.7-7.3-2.7-14.2-2.7-20.6c0-6,0.8-11.6,2.6-16.7c0.9-2.5,2-4.9,3.3-7.1c1.4-2.2,3-4.3,4.8-6.1
		c1.8-1.8,3.9-3.4,6.1-4.8c3.3-2,7-3.5,11-4.5c4-1,8.3-1.4,12.8-1.4c9.8,0,20.8,2.1,32.6,6.1c2.1,0.7,4.3,1.5,6.5,2.4
		c-1,2.5-1.9,5-2.7,7.6C431.2,558.9,429.1,558.1,427,557.4z"/>
	<path class="st7" d="M365.1,619c2.3,0,4.4-0.9,5.9-2.4c5.7,16.2,15.2,34.4,27.9,53.3c13.3,19.8,30.2,40.3,49.9,60
		c26.3,26.3,54,47.5,79.5,62c3.4,1.9,6.7,3.7,10,5.4c-1,2.6-2.1,5.1-3.1,7.5c-10-5.1-20.4-11.2-30.9-18.3
		c-20.2-13.6-41.1-30.8-61.2-50.9c-26.8-26.8-48.4-54.9-63.3-81.2c-7.1-12.4-12.7-24.4-16.6-35.6C363.8,618.9,364.5,619,365.1,619z"
		/>
</g>
<g>
	<path class="st7" d="M534.4,825.2c1.9-3.5,3.8-7.3,5.6-11.3c7.1-15.9,12.9-35.6,17-57.9c4-22.3,6.3-47.2,6.3-73.4
		c0-24.3-2-47.5-5.5-68.6c-2.5-15-5.8-29-9.8-41.5c2.5-1.3,4.9-2.6,7.3-3.8c3.8,11.9,7.1,25,9.6,39c4.1,22.8,6.4,48.1,6.4,74.8
		c0,24.8-2,48.4-5.6,69.9c-2.7,16.1-6.3,31.1-10.7,44.5c-3.3,10-7,19.2-11.1,27.3c-0.8,1.6-1.6,3.1-2.4,4.6
		C540,826.6,537.4,825.2,534.4,825.2z"/>
	<path class="st7" d="M454.1,814.2c1,2.2,2,4.4,3.1,6.5c2.9,5.8,6,10.9,9.2,15.4c4.8,6.7,9.9,11.8,15.1,15.2c2.6,1.7,5.2,3,7.7,3.8
		c2.6,0.8,5.2,1.3,7.8,1.3c2.1,0,4.1-0.3,6.2-0.8c3.8-1,7.7-2.9,11.5-5.8c3.3-2.5,6.6-5.7,9.8-9.6c0.6-0.8,1.3-1.6,1.9-2.4
		c1.2,2.5,3.5,4.4,6.4,5c-4.8,6.4-10.1,11.6-15.7,15.3c-3.1,2-6.3,3.7-9.7,4.7c-3.3,1.1-6.8,1.7-10.3,1.7c-2.8,0-5.5-0.4-8.2-1
		c-5-1.3-9.8-3.7-14.3-7.1c-3.9-3-7.7-6.7-11.2-11c-6.1-7.5-11.6-16.8-16.5-27.8C449.2,816.5,451.6,815.4,454.1,814.2z"/>
</g>
<path class="st8" d="M497.8,653.8c0,16.9-13.9,31.4-31.4,31.4H451c0,25.9,20.9,46.8,46.8,46.8c25.9,0,46.8-20.9,46.8-46.8
	c0-26.4-20.9-47.3-46.8-47.3L497.8,653.8L497.8,653.8z"/>
</svg>
