<?xml version="1.0" encoding="utf-8"?>
<!-- Generator: Adobe Illustrator 19.2.1, SVG Export Plug-In . SVG Version: 6.00 Build 0)  -->
<svg version="1.1" id="Layer_1" xmlns="http://www.w3.org/2000/svg" xmlns:xlink="http://www.w3.org/1999/xlink" x="0px" y="0px"
	 viewBox="0 0 750 1000" style="enable-background:new 0 0 750 1000;" xml:space="preserve">
<style type="text/css">
	.st0{fill:#222222;}
	.st1{fill:#D0DBEF;}
	.st2{fill:#7290A6;}
	.st3{filter:url(#Adobe_OpacityMaskFilter);}
	.st4{fill:#FFFFFF;}
	.st5{opacity:0.21;mask:url(#mask-6_2_);}
	.st6{filter:url(#Adobe_OpacityMaskFilter_1_);}
	.st7{mask:url(#mask-8_2_);fill:#3C3835;}
	.st8{opacity:0.21;}
	.st9{filter:url(#Adobe_OpacityMaskFilter_2_);}
	.st10{mask:url(#mask-10_2_);fill:#3C3835;}
	.st11{filter:url(#Adobe_OpacityMaskFilter_3_);}
	.st12{opacity:0.6;mask:url(#mask-12_2_);}
	.st13{fill:#707E85;}
	.st14{fill:#FDDC05;}
	.st15{fill:#FBBB04;}
	.st16{opacity:0.17;}
	.st17{filter:url(#Adobe_OpacityMaskFilter_4_);}
	.st18{mask:url(#mask-14_2_);fill:#3C3835;}
	.st19{filter:url(#Adobe_OpacityMaskFilter_5_);}
	.st20{mask:url(#mask-16_2_);fill:#3C3835;}
	.st21{filter:url(#Adobe_OpacityMaskFilter_6_);}
	.st22{opacity:0.4;mask:url(#mask-18_2_);}
	.st23{filter:url(#Adobe_OpacityMaskFilter_7_);}
	.st24{opacity:0.76;mask:url(#mask-20_2_);}
	.st25{filter:url(#Adobe_OpacityMaskFilter_8_);}
	.st26{mask:url(#mask-22_2_);fill:#D0DBEF;}
	.st27{filter:url(#Adobe_OpacityMaskFilter_9_);}
	.st28{opacity:8.000180e-02;mask:url(#mask-24_2_);}
	.st29{filter:url(#Adobe_OpacityMaskFilter_10_);}
	.st30{mask:url(#mask-26_2_);fill:#3C3835;}
	.st31{opacity:0.12;}
	.st32{filter:url(#Adobe_OpacityMaskFilter_11_);}
	.st33{mask:url(#mask-28_2_);fill:#3C3835;}
	.st34{opacity:0.22;}
	.st35{filter:url(#Adobe_OpacityMaskFilter_12_);}
	.st36{mask:url(#mask-30_2_);fill:#7290A6;}
	.st37{filter:url(#Adobe_OpacityMaskFilter_13_);}
	.st38{mask:url(#mask-32_2_);fill:#3C3835;}
	.st39{filter:url(#Adobe_OpacityMaskFilter_14_);}
	.st40{opacity:0.12;mask:url(#mask-34_2_);}
	.st41{filter:url(#Adobe_OpacityMaskFilter_15_);}
	.st42{mask:url(#mask-36_2_);}
	.st43{fill:#3C3835;}
	.st44{filter:url(#Adobe_OpacityMaskFilter_16_);}
	.st45{opacity:0.12;mask:url(#mask-38_2_);}
	.st46{filter:url(#Adobe_OpacityMaskFilter_17_);}
	.st47{mask:url(#mask-40_2_);fill:#3C3835;}
	.st48{fill:#F5F5F5;}
	.st49{filter:url(#Adobe_OpacityMaskFilter_18_);}
	.st50{opacity:0.2;mask:url(#mask-42_2_);}
	.st51{filter:url(#Adobe_OpacityMaskFilter_19_);}
	.st52{mask:url(#mask-44_2_);fill:#7290A6;}
	.st53{opacity:8.000180e-02;}
	.st54{filter:url(#Adobe_OpacityMaskFilter_20_);}
	.st55{mask:url(#mask-46_2_);fill:#3C3835;}
	.st56{fill:#DB9C02;}
	.st57{opacity:0.5;}
	.st58{filter:url(#Adobe_OpacityMaskFilter_21_);}
	.st59{mask:url(#mask-48_2_);fill:#DB9C02;}
	.st60{opacity:0.8;}
	.st61{filter:url(#Adobe_OpacityMaskFilter_22_);}
	.st62{mask:url(#mask-50_2_);fill:#DB9C02;}
</style>
<rect class="st0" width="752" height="1000"/>
<g id="Rectangle-path">
</g>
<path id="Shape" class="st1" d="M810.5,128.5c-22.8-20.2-52.5-34.5-91.2-36.3c-30.7-1.4-51.1-2.7-65.3-3.9v-0.1
	c-14.2,1.1-34.7,2.5-65.3,3.9c-149.6,6.9-165.1,201.2-165.1,201.2s-1.7,70.5-6.9,101.4c-5.2,30.9,1.7,151.3,43,199.4
	c35.6,41.5,117,107.2,151,124.6c9.4,5.3,25.4,8.8,43.6,8.8c20.3,0,38-4.4,46.6-10.7c25.7-14.3,72.4-50.4,109.5-84.4V128.5
	L810.5,128.5z"/>
<path id="Shape_1_" class="st1" d="M651.1,711.4l0-0.2L459.3,614c0,0,12,51.1-19,76.9c-31,25.8,5.2,47,5.2,47L650.3,875l0,0.9
	l156.4-104.7V632.5L651.1,711.4L651.1,711.4z"/>
<path id="Shape_2_" class="st2" d="M793.1,569.2c3.4-41.3-27.4-62.7-47-75.7c-31.8-21-51.6-17.5-68.9-18.2l0,0l-54.3-0.3
	c-18.4,1-30.3-2.3-61.3,18.3c-19.6,13-50.4,34.4-47,75.7c0,0-87.4-67.3-98-132.4c-4.6-28.1,0.6-88.9,0.6-88.9l-17.8,35.5
	c0.8,8.5,4.1,22.7,7,32.8c-1.5,34.1,5.6,143.9,31.4,174.2c39.2,46,123.5,144.1,214.9,144.1l0,0c57.1,1.1,111.7-36.6,154.3-76.4
	V556.1C798.5,564.4,793.1,569.2,793.1,569.2"/>
<g id="Clipped_1_" transform="translate(1.671776, 76.498500)">
	<g id="Rectangle-path_1_">
	</g>
	<defs>
		<filter id="Adobe_OpacityMaskFilter" filterUnits="userSpaceOnUse" x="680.9" y="215.5" width="123.7" height="55.4">
			<feColorMatrix  type="matrix" values="1 0 0 0 0  0 1 0 0 0  0 0 1 0 0  0 0 0 1 0"/>
		</filter>
	</defs>
	<mask maskUnits="userSpaceOnUse" x="680.9" y="215.5" width="123.7" height="55.4" id="mask-6_2_">
		<g class="st3">
			<rect id="path-5_2_" x="680.9" y="215.5" class="st4" width="123.7" height="55.4"/>
		</g>
	</mask>
	<g id="Group" class="st5">
		<g id="Clipped">
			<g id="Rectangle-path_2_">
			</g>
			<defs>
				<filter id="Adobe_OpacityMaskFilter_1_" filterUnits="userSpaceOnUse" x="680.9" y="215.5" width="123.7" height="55.4">
					<feColorMatrix  type="matrix" values="1 0 0 0 0  0 1 0 0 0  0 0 1 0 0  0 0 0 1 0"/>
				</filter>
			</defs>
			<mask maskUnits="userSpaceOnUse" x="680.9" y="215.5" width="123.7" height="55.4" id="mask-8_2_">
				<g class="st6">
					<rect id="path-7_2_" x="680.9" y="215.5" class="st4" width="123.7" height="55.4"/>
				</g>
			</mask>
			<path id="Shape_3_" class="st7" d="M804.7,228.9l-56.2-13.5l-67.5,19.9l32.8,30l3.4-2.5c1.8-3.3,3.4-2.5,7.4-2.5
				c4.5,0,8.3,2.7,9.9,6.6l64.7,3.8c1-2.6,3-4.7,5.6-5.8V228.9L804.7,228.9z"/>
		</g>
	</g>
</g>
<path id="Shape_4_" class="st2" d="M806.4,333.9c-21-11.9-48.6-25.5-60-24.4c-27.1,2.6-35.4,33.7-30.6,32.3
	c7.4-2.2,9.1-2.2,12.6-1.3c3.4,0.9,26.1,15.3,50.2,16c11.1,0.3,21.7-4.1,27.9-7.3V333.9L806.4,333.9z"/>
<g id="Group_1_" transform="translate(45.253249, 76.834389)" class="st8">
	<g id="Clipped_2_">
		<g id="Rectangle-path_3_">
		</g>
		<defs>
			<filter id="Adobe_OpacityMaskFilter_2_" filterUnits="userSpaceOnUse" x="428.4" y="216.6" width="156.8" height="56.8">
				<feColorMatrix  type="matrix" values="1 0 0 0 0  0 1 0 0 0  0 0 1 0 0  0 0 0 1 0"/>
			</filter>
		</defs>
		<mask maskUnits="userSpaceOnUse" x="428.4" y="216.6" width="156.8" height="56.8" id="mask-10_2_">
			<g class="st9">
				<rect id="path-9_2_" x="428.4" y="216.6" class="st4" width="156.8" height="56.8"/>
			</g>
		</mask>
		<path id="Shape_5_" class="st10" d="M519,216.6l-90.5,21.9l9.7,34.9l11-0.2c1.1-4.4,5.1-7.7,9.8-7.7c4.3,0,8,2.7,9.5,6.6l64.7-3.8
			c1.6-3.9,5.5-6.6,9.9-6.6c4,0,6.1,0,7.9,3.3l3,1.5l31.3-29L519,216.6L519,216.6z"/>
	</g>
</g>
<path id="Shape_6_" class="st2" d="M483.4,350c0,0,5.1-3.2,12.8-7.9c21-12.6,58.1-32.6,71.8-31.3c27.1,2.6,35.4,33.7,30.6,32.3
	c-7.4-2.2-9.1-2.2-12.6-1.3c-3.4,0.9-26.1,15.3-50.2,16c-17.1,0.5-33.2-10.4-33.2-10.4l-19.3,10.3"/>
<g id="Clipped_3_" transform="translate(63.979007, 82.376541)">
	<g id="Rectangle-path_4_">
	</g>
	<defs>
		<filter id="Adobe_OpacityMaskFilter_3_" filterUnits="userSpaceOnUse" x="456.9" y="233.3" width="34.1" height="31.1">
			<feColorMatrix  type="matrix" values="1 0 0 0 0  0 1 0 0 0  0 0 1 0 0  0 0 0 1 0"/>
		</filter>
	</defs>
	<mask maskUnits="userSpaceOnUse" x="456.9" y="233.3" width="34.1" height="31.1" id="mask-12_2_">
		<g class="st11">
			<rect id="path-11_2_" x="456.9" y="233.3" class="st4" width="34.1" height="31.1"/>
		</g>
	</mask>
	<g id="Group_2_" class="st12">
		<path id="Shape_7_" class="st1" d="M483.6,233.3c-7.9,3.2-15.3,6.5-26.6,12.3c-0.1,0.6-0.1,1.2-0.1,1.8c0,9.4,7.6,17.1,17.1,17.1
			c9.4,0,17.1-7.6,17.1-17.1C491,241.6,488.1,236.4,483.6,233.3"/>
	</g>
</g>
<path id="Shape_8_" class="st13" d="M461.6,617.3c-12.4-21.6-26.8-51.7-26.2-74.7c0.6-19.3-7.4-46.7-12.4-71.1
	c-9.6-5.6-16.2-17.6-16.2-31.5c0-4.6-10.1-10-8.8-14.1l-13.3,11.2c0,0-47.8,84.8-31.8,129.6c16,44.7,52.7,83.7,75.7,83.7
	c11,0,23-1.3,32.5-2.7C463.1,635.9,462.5,624.7,461.6,617.3"/>
<path id="Shape_9_" class="st2" d="M465.3,309.2c0,0,57.6-12.9,76.1-22.8c18.5-9.9,27.1-10.3,27.1-10.3s17.2-0.4,49.9,18.5
	c32.7,18.9,8.2,23.6,8.2,23.6s-24.1-13.3-44.7-17.2c-20.6-3.9-45.6,7.3-45.6,7.3s-49.9,24.5-57.6,23.6"/>
<path id="Shape_10_" class="st2" d="M643.6,463.5c0,0-16.6-16.1-26.9-12c-10.3,4-10.3,9.2-10.3,9.2S600.6,471.5,643.6,463.5"/>
<path id="Shape_11_" class="st2" d="M664.1,463.8c0,0,16.6-16.1,26.9-12c10.3,4,10.3,9.2,10.3,9.2S707.1,471.8,664.1,463.8"/>
<path id="Shape_12_" class="st14" d="M616.1,848.6c-5.4-7-10.8-30.1-16.6-41c-17-31.9-112.3-10.8-141.1-74.1
	c-15-33.1,2.5-77.8,2.5-77.8l-29.1,10.8c0,0-12.9,1.7-12.9,25.8c0,24.1-34.9,31.7-34.9,31.7l1.4,146.3l55,137.6l214.7,0.3l0.7-147.8
	C655.8,860.4,629.9,866.3,616.1,848.6"/>
<path id="Shape_13_" class="st15" d="M91.2,847.1c0,0,248.6-95.5,268.3-112.7c19.8-17.2,26.7-10.3,26.7-10.3s-1.7,131.6,29.2,196.9
	c31,65.4,24.9,86.9,24.9,86.9l-276.9,0.9"/>
<path id="Shape_14_" class="st13" d="M333.2,417.6c0,0-131.9,84.6,31.3,180.8c0,0-32.3-18.1-28.4-62.4
	c3.9-44.3,31.5-130.9,69.8-130.9"/>
<g id="Group_3_" transform="translate(55.245918, 93.292902)" class="st16">
	<g id="Clipped_4_">
		<g id="Rectangle-path_5_">
		</g>
		<defs>
			<filter id="Adobe_OpacityMaskFilter_4_" filterUnits="userSpaceOnUse" x="433.5" y="266.5" width="101.5" height="178.8">
				<feColorMatrix  type="matrix" values="1 0 0 0 0  0 1 0 0 0  0 0 1 0 0  0 0 0 1 0"/>
			</filter>
		</defs>
		<mask maskUnits="userSpaceOnUse" x="433.5" y="266.5" width="101.5" height="178.8" id="mask-14_2_">
			<g class="st17">
				<rect id="path-13_2_" x="433.5" y="266.5" class="st4" width="101.5" height="178.8"/>
			</g>
		</mask>
		<path id="Shape_15_" class="st18" d="M433.5,445.3c0,0,21.8-75.1,31-82c9.2-6.9,40.7-25.2,46.4-43.6c5.7-18.3,24.1-53.3,24.1-53.3
			s-24.1,43-40.7,63.6c-10.7,13.3-32.7,22.4-32.7,22.4S433.5,389.1,433.5,445.3"/>
	</g>
</g>
<g id="Group_4_" transform="translate(1.503832, 93.040986)" class="st16">
	<g id="Clipped_5_">
		<g id="Rectangle-path_6_">
		</g>
		<defs>
			<filter id="Adobe_OpacityMaskFilter_5_" filterUnits="userSpaceOnUse" x="704.2" y="265.6" width="101.5" height="178.8">
				<feColorMatrix  type="matrix" values="1 0 0 0 0  0 1 0 0 0  0 0 1 0 0  0 0 0 1 0"/>
			</filter>
		</defs>
		<mask maskUnits="userSpaceOnUse" x="704.2" y="265.6" width="101.5" height="178.8" id="mask-16_2_">
			<g class="st19">
				<rect id="path-15_2_" x="704.2" y="265.6" class="st4" width="101.5" height="178.8"/>
			</g>
		</mask>
		<path id="Shape_16_" class="st20" d="M805.7,444.4c0,0-21.8-75.1-31-82c-9.2-6.9-40.7-25.2-46.4-43.6
			c-5.7-18.3-24.1-53.3-24.1-53.3s24.1,43,40.7,63.6c10.7,13.3,32.7,22.4,32.7,22.4S805.7,388.2,805.7,444.4"/>
	</g>
</g>
<path id="Shape_17_" class="st2" d="M530.6,329.9c0,4.1,3.3,7.5,7.5,7.5c4.1,0,7.5-3.3,7.5-7.5c0-4.1-3.3-7.5-7.5-7.5
	C534,322.5,530.6,325.8,530.6,329.9"/>
<path id="Shape_18_" class="st1" d="M540.1,325.7c0,1.3,1,2.3,2.3,2.3c1.3,0,2.3-1,2.3-2.3s-1-2.3-2.3-2.3
	C541.1,323.4,540.1,324.4,540.1,325.7"/>
<g id="Clipped_6_" transform="translate(4.862712, 82.040653)">
	<g id="Rectangle-path_7_">
	</g>
	<defs>
		<filter id="Adobe_OpacityMaskFilter_6_" filterUnits="userSpaceOnUse" x="754.5" y="232.2" width="34.1" height="31.1">
			<feColorMatrix  type="matrix" values="1 0 0 0 0  0 1 0 0 0  0 0 1 0 0  0 0 0 1 0"/>
		</filter>
	</defs>
	<mask maskUnits="userSpaceOnUse" x="754.5" y="232.2" width="34.1" height="31.1" id="mask-18_2_">
		<g class="st21">
			<rect id="path-17_2_" x="754.5" y="232.2" class="st4" width="34.1" height="31.1"/>
		</g>
	</mask>
	<g id="Group_5_" class="st22">
		<path id="Shape_19_" class="st1" d="M761.9,232.2c7.9,3.2,15.3,6.5,26.6,12.3c0.1,0.6,0.1,1.2,0.1,1.8c0,9.4-7.6,17.1-17.1,17.1
			c-9.4,0-17.1-7.6-17.1-17.1C754.5,240.5,757.5,235.3,761.9,232.2"/>
	</g>
</g>
<path id="Shape_20_" class="st2" d="M783.7,328.5c0,4.1-3.3,7.5-7.5,7.5c-4.1,0-7.5-3.3-7.5-7.5c0-4.1,3.3-7.5,7.5-7.5
	C780.4,321.1,783.7,324.4,783.7,328.5"/>
<path id="Shape_21_" class="st1" d="M774.3,324.2c0,1.3-1,2.3-2.3,2.3c-1.3,0-2.3-1-2.3-2.3c0-1.3,1-2.3,2.3-2.3
	C773.2,321.9,774.3,323,774.3,324.2"/>
<path id="Shape_22_" class="st2" d="M806.9,297c-13.4-3.8-26.7-8.2-33.9-12c-18.5-9.9-27.1-10.3-27.1-10.3s-17.2-0.4-49.9,18.5
	s-8.2,23.6-8.2,23.6s24.1-13.3,44.7-17.2c20.6-3.9,45.6,7.3,45.6,7.3s14.3,7,28.8,13.4V297L806.9,297z"/>
<g id="Clipped_8_" transform="translate(22.160946, 135.194935)">
	<g id="Rectangle-path_8_">
	</g>
	<defs>
		<filter id="Adobe_OpacityMaskFilter_7_" filterUnits="userSpaceOnUse" x="564.3" y="393.6" width="137.2" height="18.9">
			<feColorMatrix  type="matrix" values="1 0 0 0 0  0 1 0 0 0  0 0 1 0 0  0 0 0 1 0"/>
		</filter>
	</defs>
	<mask maskUnits="userSpaceOnUse" x="564.3" y="393.6" width="137.2" height="18.9" id="mask-20_2_">
		<g class="st23">
			<rect id="path-19_2_" x="564.3" y="393.6" class="st4" width="137.2" height="18.9"/>
		</g>
	</mask>
	<g id="Group_6_" class="st24">
		<g id="Clipped_7_">
			<g id="Rectangle-path_9_">
			</g>
			<defs>
				<filter id="Adobe_OpacityMaskFilter_8_" filterUnits="userSpaceOnUse" x="564.3" y="393.6" width="137.2" height="18.9">
					<feColorMatrix  type="matrix" values="1 0 0 0 0  0 1 0 0 0  0 0 1 0 0  0 0 0 1 0"/>
				</filter>
			</defs>
			<mask maskUnits="userSpaceOnUse" x="564.3" y="393.6" width="137.2" height="18.9" id="mask-22_2_">
				<g class="st25">
					<rect id="path-21_2_" x="564.3" y="393.6" class="st4" width="137.2" height="18.9"/>
				</g>
			</mask>
			<path id="Shape_23_" class="st26" d="M669.2,397.3c-9.9-7.5-22.5,1.1-22.5,1.1s-5.6,3.9-13.8,3.6v0c-6.6,0-12.2-4.6-12.2-4.6
				s-9.7-8.6-22.4-0.2c-9.6,6.4-34,15.3-34,15.3s29.2-5.6,38.3-6.4c8-0.8,23.5,3.6,29.2,4.4c0.1,0.1,2,0.1,2.1,0
				c5.7-0.8,21.2-5.1,29.3-4.4c9,0.9,38.3,6.4,38.3,6.4S677.3,403.4,669.2,397.3"/>
		</g>
	</g>
</g>
<path id="Shape_24_" class="st1" d="M682.3,541.5c-8.5,0.1-19.8,3.6-27.2,4.5c-7.5-0.9-18.8-4.4-27.2-4.5
	c-8.9-0.1-41.4,6.5-41.4,6.5s33.6,27,63.4,24.4c1.6-0.1,8.8-0.2,10.4,0c27.5,3.7,63.4-24.4,63.4-24.4S691.1,541.4,682.3,541.5"/>
<g id="Clipped_10_" transform="translate(1.503832, 1.091636)">
	<g id="Rectangle-path_10_">
	</g>
	<defs>
		<filter id="Adobe_OpacityMaskFilter_9_" filterUnits="userSpaceOnUse" x="648.3" y="-13.4" width="157.1" height="746.4">
			<feColorMatrix  type="matrix" values="1 0 0 0 0  0 1 0 0 0  0 0 1 0 0  0 0 0 1 0"/>
		</filter>
	</defs>
	<mask maskUnits="userSpaceOnUse" x="648.3" y="-13.4" width="157.1" height="746.4" id="mask-24_2_">
		<g class="st27">
			<rect id="path-23_2_" x="648.3" y="-13.4" class="st4" width="157.1" height="746.4"/>
		</g>
	</mask>
	<g id="Group_7_" class="st28">
		<g id="Clipped_9_">
			<g id="Rectangle-path_11_">
			</g>
			<defs>
				<filter id="Adobe_OpacityMaskFilter_10_" filterUnits="userSpaceOnUse" x="648.3" y="-13.4" width="157.1" height="746.4">
					<feColorMatrix  type="matrix" values="1 0 0 0 0  0 1 0 0 0  0 0 1 0 0  0 0 0 1 0"/>
				</filter>
			</defs>
			<mask maskUnits="userSpaceOnUse" x="648.3" y="-13.4" width="157.1" height="746.4" id="mask-26_2_">
				<g class="st29">
					<rect id="path-25_2_" x="648.3" y="-13.4" class="st4" width="157.1" height="746.4"/>
				</g>
			</mask>
			<path id="Shape_25_" class="st30" d="M649.3,94.4c0,0,15.5,185.7,10.3,214.9c-5.2,29.2,6.9,91.1,24.1,101.4
				c17.2,10.3,31.7,38,27.7,48.8c-5.6,15-20.7,15.6-49.2,13.7c0,0,17.1,4.7,19.1,26.1c3.4,36.1-28.2,35.2-28.8,35.8
				c-3.8,3.7,2.1,8.6,2.1,8.6s5.7,1.1,4.6,26.4c-1.1,25.2-14.3,135.3,0.6,162.8c0,0,59.1,6.1,145.6-76.1V129.9V-13.4l-157.1,2.3"/>
		</g>
	</g>
</g>
<g id="Group_8_" transform="translate(33.833056, 113.362213)" class="st31">
	<g id="Clipped_11_">
		<g id="Rectangle-path_12_">
		</g>
		<defs>
			<filter id="Adobe_OpacityMaskFilter_11_" filterUnits="userSpaceOnUse" x="600.4" y="327.2" width="42.2" height="21.2">
				<feColorMatrix  type="matrix" values="1 0 0 0 0  0 1 0 0 0  0 0 1 0 0  0 0 0 1 0"/>
			</filter>
		</defs>
		<mask maskUnits="userSpaceOnUse" x="600.4" y="327.2" width="42.2" height="21.2" id="mask-28_2_">
			<g class="st32">
				<rect id="path-27_2_" x="600.4" y="327.2" class="st4" width="42.2" height="21.2"/>
			</g>
		</mask>
		<path id="Shape_26_" class="st33" d="M600.4,337.2c0,0,20.8,24.7,39.1,0.9c0,0,3.8-5.4,3-10.3
			C641.8,323.5,629.2,346.1,600.4,337.2"/>
	</g>
</g>
<path id="Shape_27_" class="st13" d="M351.7-11.1c0,0-60.2,13.8-63.6,46.4c-3.4,32.7,12,41.3,10.3,70.5C296.7,135,401.6,25,401.6,25
	l17.2-36.7"/>
<path id="Shape_28_" class="st2" d="M491-11.7c0,0-73.4,190.8-121.8,211.5s-82.7,13.8-82.7,36.1s-40.6-91.1,7.8-125.5
	S411.5-16.9,411.5-16.9L491-11.7L491-11.7z"/>
<path id="Shape_29_" class="st13" d="M432.5-11.1c2.3,45.7-39.6,132.4-118.6,185.7c-54.2,36.5-75.2,102.9-65.3,120.4
	c6.9,12,6.8,2.3,7.4,2.9c21.5-21.7,48.7-54.5,83.7-54.5c20.5,0,26.4,10.6,40.7,22.5c25.8-15.4,52.5-47,74.4-53.4
	c29.2-8.6,20.6-94.6,53.3-135.8c32.7-41.3,116.9,18.9,227-12c56.9-16,58.2-47.7,46.1-74.5L432.5-11.1L432.5-11.1z"/>
<path id="Shape_30_" class="st13" d="M448.7,176.9c0,0-16.1,181.9-68.6,209c-52.6,27.1-116.8,98.9-116.8,98.9s-35-59-17.5-116.5
	c17.5-57.4,105.1-55.8,140.2-108.5C420.9,207.2,448.7,176.9,448.7,176.9"/>
<path id="Shape_31_" class="st13" d="M780.3,193.8c14.5-17.4,23-40.4,27.8-64.6V-2c-0.7-4.4-1.1-6.8-1.1-6.8s-0.8-0.9-2.3-2.3h-56.4
	c-15.4,19.8-28.7,63.4-32.2,152.2c0,0-10.2,61.4,14.9,96.3c48.2,67.1,68.4,57.1,78,61.2v-29.7C795.7,248.6,762.9,214.8,780.3,193.8"
	/>
<path id="Shape_32_" class="st2" d="M436,251.9c0,0-192.6-61.9-198.9,92c-4.2,103.2,15.1,116.7,15.1,116.7s-6.5-95.3,34-117.5
	C347.4,309.5,380.6,247.2,436,251.9"/>
<path id="Shape_33_" class="st2" d="M388.2,412.5c0,0-114.1,40.2-70.8,133.6c43.3,93.4,92.9,94.6,92.9,94.6s-51.3-27.6-45.1-88.1
	c6.2-60.5,38-138,38-138"/>
<path id="Shape_34_" class="st1" d="M411.7,507.9c0,0-3.7,7.2-7.7,3.7c-4-3.4-6.3-27.8-10.9-44.4c-2.5-8.9-8.3-30.1-8.3-30.1
	s-3.7-14.6-2-28.4c1.7-13.8,1.7-29.2,13.2-22.4c11.5,6.9,9.7,26.4,9.7,26.4"/>
<path id="Shape_35_" class="st2" d="M425.2,293.8c0,0,1.1,108.9-49,142.6c-47.7,32-96.7-7.7-96.7-23.2c0,0,63.8,0,83.9-27
	c20.1-27,50.4-78.5,46.8-95.8C406.5,273,425.2,293.8,425.2,293.8"/>
<path id="Shape_36_" class="st2" d="M489.2,157.4c0,0,17.2,139.3-43,149.6c-60.2,10.3-87.7-17.2-87.7-17.2S463.5,303.5,489.2,157.4"
	/>
<path id="Shape_37_" class="st2" d="M806.9,49.6c0,0-52.8,14.9-45.9,92.9c7.6,85.2,48.2,149,48.2,149"/>
<g id="Group_9_" transform="translate(99.415195, 100.094635)" class="st34">
	<g id="Clipped_12_">
		<g id="Rectangle-path_13_">
		</g>
		<defs>
			<filter id="Adobe_OpacityMaskFilter_12_" filterUnits="userSpaceOnUse" x="283.1" y="286.9" width="29.4" height="127.9">
				<feColorMatrix  type="matrix" values="1 0 0 0 0  0 1 0 0 0  0 0 1 0 0  0 0 0 1 0"/>
			</filter>
		</defs>
		<mask maskUnits="userSpaceOnUse" x="283.1" y="286.9" width="29.4" height="127.9" id="mask-30_2_">
			<g class="st35">
				<rect id="path-29_2_" x="283.1" y="286.9" class="st4" width="29.4" height="127.9"/>
			</g>
		</mask>
		<path id="Shape_38_" class="st36" d="M312.5,410.1c0,0-3.7,7.2-7.7,3.7c-4-3.4-6.3-27.8-10.9-44.4c-2.5-8.9-8.3-30.1-8.3-30.1
			s-3.7-14.6-2-28.4c1.7-13.8,1.7-29.2,13.2-22.4s9.7,26.4,9.7,26.4"/>
	</g>
</g>
<path id="Shape_39_" class="st2" d="M480.6,288.9c0,0,39-88.2,134.9-68.4c95.8,19.8,142-162,142-162s-31.9,66.6-90.5,93.6
	C608.4,179.1,477.1,157.5,480.6,288.9"/>
<g id="Group_10_" transform="translate(57.177274, 140.737088)" class="st31">
	<g id="Clipped_13_">
		<g id="Rectangle-path_14_">
		</g>
		<defs>
			<filter id="Adobe_OpacityMaskFilter_13_" filterUnits="userSpaceOnUse" x="482.6" y="410.5" width="42.5" height="83.4">
				<feColorMatrix  type="matrix" values="1 0 0 0 0  0 1 0 0 0  0 0 1 0 0  0 0 0 1 0"/>
			</filter>
		</defs>
		<mask maskUnits="userSpaceOnUse" x="482.6" y="410.5" width="42.5" height="83.4" id="mask-32_2_">
			<g class="st37">
				<rect id="path-31_2_" x="482.6" y="410.5" class="st4" width="42.5" height="83.4"/>
			</g>
		</mask>
		<path id="Shape_40_" class="st38" d="M525.1,410.5c0,0-57.6,35.3-38.7,69.7c0,0,5.2,12.9,18.9,13.8
			C505.3,493.9,482.1,450.9,525.1,410.5"/>
	</g>
</g>
<g id="Clipped_15_" transform="translate(28.878707, 150.141953)">
	<g id="Rectangle-path_15_">
	</g>
	<defs>
		<filter id="Adobe_OpacityMaskFilter_14_" filterUnits="userSpaceOnUse" x="589" y="439" width="78.5" height="32">
			<feColorMatrix  type="matrix" values="1 0 0 0 0  0 1 0 0 0  0 0 1 0 0  0 0 0 1 0"/>
		</filter>
	</defs>
	<mask maskUnits="userSpaceOnUse" x="589" y="439" width="78.5" height="32" id="mask-34_2_">
		<g class="st39">
			<rect id="path-33_2_" x="589" y="439" class="st4" width="78.5" height="32"/>
		</g>
	</mask>
	<g id="Group_12_" class="st40">
		<g id="Clipped_14_">
			<g>
				<g id="Rectangle-path_16_">
				</g>
				<defs>
					<filter id="Adobe_OpacityMaskFilter_15_" filterUnits="userSpaceOnUse" x="589" y="439" width="78.5" height="32">
						<feColorMatrix  type="matrix" values="1 0 0 0 0  0 1 0 0 0  0 0 1 0 0  0 0 0 1 0"/>
					</filter>
				</defs>
				<mask maskUnits="userSpaceOnUse" x="589" y="439" width="78.5" height="32" id="mask-36_2_">
					<g class="st41">
						<rect id="path-35_2_" x="589" y="439" class="st4" width="78.5" height="32"/>
					</g>
				</mask>
				<g id="Group_11_" class="st42">
					<path id="Shape_41_" class="st43" d="M592.7,439.5c-14-4.8,15.3,30.3,35.6,31.5l0.2-26.1C628.5,444.9,606.7,444.4,592.7,439.5"
						/>
					<path id="Shape_42_" class="st43" d="M663.9,439.5c-14,4.8-35.4,5.4-35.4,5.4l-0.2,26.1C648.6,469.8,677.9,434.7,663.9,439.5"
						/>
				</g>
			</g>
		</g>
	</g>
</g>
<g id="Clipped_17_" transform="translate(9.565145, 140.821060)">
	<g id="Rectangle-path_17_">
	</g>
	<defs>
		<filter id="Adobe_OpacityMaskFilter_16_" filterUnits="userSpaceOnUse" x="722.3" y="410.7" width="42.5" height="83.4">
			<feColorMatrix  type="matrix" values="1 0 0 0 0  0 1 0 0 0  0 0 1 0 0  0 0 0 1 0"/>
		</filter>
	</defs>
	<mask maskUnits="userSpaceOnUse" x="722.3" y="410.7" width="42.5" height="83.4" id="mask-38_2_">
		<g class="st44">
			<rect id="path-37_2_" x="722.3" y="410.7" class="st4" width="42.5" height="83.4"/>
		</g>
	</mask>
	<g id="Group_13_" class="st45">
		<g id="Clipped_16_">
			<g id="Rectangle-path_18_">
			</g>
			<defs>
				<filter id="Adobe_OpacityMaskFilter_17_" filterUnits="userSpaceOnUse" x="722.3" y="410.7" width="42.5" height="83.4">
					<feColorMatrix  type="matrix" values="1 0 0 0 0  0 1 0 0 0  0 0 1 0 0  0 0 0 1 0"/>
				</filter>
			</defs>
			<mask maskUnits="userSpaceOnUse" x="722.3" y="410.7" width="42.5" height="83.4" id="mask-40_2_">
				<g class="st46">
					<rect id="path-39_2_" x="722.3" y="410.7" class="st4" width="42.5" height="83.4"/>
				</g>
			</mask>
			<path id="Shape_43_" class="st47" d="M722.3,410.7c0,0,57.6,35.3,38.7,69.7c0,0-5.2,12.9-18.9,13.8
				C742.1,494.1,765.3,451.2,722.3,410.7"/>
		</g>
	</g>
</g>
<path id="Shape_44_" class="st2" d="M751.9-11.1C748.4,13,734,46.1,682.6,52.5c-82.5,10.3-186.9-65.3-218.1,5.2
	c-31.2,70.5-11,144.4-33,147.9c-22,3.4-64.1-22.4-66-44.7c-1.8-22.4-12.1,53.3-12.1,53.3c0,53.3,76.2,61.9,105.5,37.8
	c29.3-24.1,25.7-63.6,49.5-96.3c23.8-32.7,144.8-6.9,194.2-25.8c39.9-15.2,52.4-95.2,51.9-141H751.9L751.9-11.1z"/>
<path id="Shape_45_" class="st13" d="M757.6,58.8c0,0-27.7,127.8-101.6,127.8s-73.9-22.4-120.4,1.7c-46.4,24.1-20.6,60.2-61.9,82.5
	c-41.3,22.4-63.7-15.6-63.7-15.6s37.9,13.8,53.4-10.2c15.5-24.1,15.5-113.5,70.5-118.6C589,121.3,714.7,131,757.6,58.8"/>
<path id="Shape_46_" class="st13" d="M403.8,426.7c0.9,0,1.8,0.3,2.7,1l2.8,38.8c-1.3,2.3-3,3.7-4.8,3.7c-4.8,0.1-8.8-9.6-9-21.6
	C395.2,436.6,399,426.8,403.8,426.7"/>
<path id="Shape_47_" class="st48" d="M403.1,434.9c1.4,0,2.7,0.2,3.9,0.7l1.5,21.6c-1.6,0.9-3.5,1.3-5.5,1.3
	c-6.5,0-11.8-5.3-11.8-11.8C391.3,440.1,396.5,434.9,403.1,434.9"/>
<path id="Shape_48_" class="st48" d="M662.6,849.4h-15.8c-2.2,0-4.1-1.8-4.1-4.1v-23.9c0-2.2,1.8-4.1,4.1-4.1h15.8
	c2.2,0,4.1,1.8,4.1,4.1v23.9C666.6,847.6,664.8,849.4,662.6,849.4"/>
<path id="Shape_49_" class="st48" d="M661.6,796.5c-1.7,1.4-2.9,2.8-3.8,4.4c-0.8,1.6-1.3,3.3-1.3,5.2c0,0.1,0,0.3,0,0.4v0
	c0.1,1.9,0.1,3.7,0.2,5.5h-3.4c-0.1-1.7-0.1-3.5-0.2-5.4v0c0-0.2,0-0.3,0-0.5c0-3,0.8-5.7,2.4-8c1.5-2.2,3.5-4.1,6-5.7
	c4.7-3.1,11-5.5,18.7-7.6c13.3-3.8,30.6-6.9,49.6-11.3c25.2-5.9,53.4-14.2,79.1-29.5v3.9c-1.7,1-3.5,2-5.2,2.9
	c-17.1,9.2-34.9,15.6-52,20.5c-12.8,3.7-25.3,6.5-36.7,8.9c-8.6,1.8-16.6,3.5-23.8,5.2c-5.4,1.3-10.3,2.6-14.6,4
	C670.1,791.4,665,793.7,661.6,796.5"/>
<g id="Clipped_19_" transform="translate(1.503832, 163.913362)">
	<g id="Rectangle-path_19_">
	</g>
	<defs>
		<filter id="Adobe_OpacityMaskFilter_18_" filterUnits="userSpaceOnUse" x="659.9" y="480.7" width="145.5" height="329">
			<feColorMatrix  type="matrix" values="1 0 0 0 0  0 1 0 0 0  0 0 1 0 0  0 0 0 1 0"/>
		</filter>
	</defs>
	<mask maskUnits="userSpaceOnUse" x="659.9" y="480.7" width="145.5" height="329" id="mask-42_2_">
		<g class="st49">
			<rect id="path-41_2_" x="659.9" y="480.7" class="st4" width="145.5" height="329"/>
		</g>
	</mask>
	<g id="Group_14_" class="st50">
		<g id="Clipped_18_">
			<g id="Rectangle-path_20_">
			</g>
			<defs>
				<filter id="Adobe_OpacityMaskFilter_19_" filterUnits="userSpaceOnUse" x="659.9" y="480.7" width="145.5" height="329">
					<feColorMatrix  type="matrix" values="1 0 0 0 0  0 1 0 0 0  0 0 1 0 0  0 0 0 1 0"/>
				</filter>
			</defs>
			<mask maskUnits="userSpaceOnUse" x="659.9" y="480.7" width="145.5" height="329" id="mask-44_2_">
				<g class="st51">
					<rect id="path-43_2_" x="659.9" y="480.7" class="st4" width="145.5" height="329"/>
				</g>
			</mask>
			<path id="Shape_50_" class="st52" d="M689.5,787V687h-1c19-33.3-28.6-116.7-28.6-116.7l145.5-89.6l-0.2,126.1L695.4,809.8
				c0,0-7.2-9.4-16.4-22.8H689.5L689.5,787z"/>
		</g>
	</g>
</g>
<path id="Shape_51_" class="st14" d="M806.7,770.8c-37.1,18.7-85.5,13.9-97.7,36.8c-5.8,10.9-12.6,32.2-18,39.2
	c-13.8,17.8-36.6,14-36.6,14l0.6,147.9l151.7,0.3V770.8L806.7,770.8z"/>
<g id="Group_15_" transform="translate(1.503832, 195.150950)" class="st53">
	<g id="Clipped_20_">
		<g id="Rectangle-path_21_">
		</g>
		<defs>
			<filter id="Adobe_OpacityMaskFilter_20_" filterUnits="userSpaceOnUse" x="653.2" y="575.6" width="152.3" height="238.2">
				<feColorMatrix  type="matrix" values="1 0 0 0 0  0 1 0 0 0  0 0 1 0 0  0 0 0 1 0"/>
			</filter>
		</defs>
		<mask maskUnits="userSpaceOnUse" x="653.2" y="575.6" width="152.3" height="238.2" id="mask-46_2_">
			<g class="st54">
				<rect id="path-45_2_" x="653.2" y="575.6" class="st4" width="152.3" height="238.2"/>
			</g>
		</mask>
		<path id="Shape_52_" class="st55" d="M805.5,575.6c-37.1,18.7-85.5,13.9-97.7,36.8c-5.8,10.9-12.6,32.2-18,39.2
			c-13.8,17.8-36.6,14-36.6,14l0.6,147.9l151.7,0.3V575.6L805.5,575.6z"/>
	</g>
</g>
<path id="Shape_53_" class="st15" d="M636.8,878.9c0,10,8.1,18.1,18.1,18.1c10,0,18.1-8.1,18.1-18.1c0-10-8.1-18.1-18.1-18.1
	C644.8,860.8,636.8,868.9,636.8,878.9"/>
<path id="Shape_54_" class="st48" d="M408.6,456.9c2.3,40.1,3.1,70.8,6.5,107.4c1.7,18.3,3.5,35,5.4,48.9c0.9,7,1.9,13.2,2.9,18.7
	c1,5.4,2,10.1,2.9,13.7c5.4,19.8,13.1,36.5,22.2,50.6c16.1,24.7,37,41.6,59.3,53.7c16.8,9.1,34.3,15.4,51.3,20.2
	c12.7,3.6,25.1,6.4,36.5,8.9c8.6,1.8,16.6,3.5,23.8,5.2c5.4,1.3,10.4,2.6,14.9,4c6.7,2.2,12.1,4.6,16.1,7.8c2,1.6,3.5,3.4,4.6,5.4
	c1.1,2,1.7,4.3,1.7,6.8c0,0.2,0,0.3,0,0.5v0c-0.3,10.8-0.6,28.8-0.8,49.7c-0.3,31.3-0.5,69.2-0.7,99.2c-0.1,15-0.1,28.1-0.1,37.4
	c0,4.7,0,8.4,0,10.9c0,1.3,0,2.3,0,2.9s0,1,0,1l-3.4,0c0,0,0.1-39.5,0.3-84.3c0.1-22.4,0.3-46.2,0.5-67.1
	c0.2-20.9,0.5-38.9,0.8-49.8v0c0-0.1,0-0.3,0-0.4c0-2.4-0.6-4.3-1.8-6.2c-1.1-1.7-2.8-3.3-5-4.8c-4.2-2.8-10.2-5.1-17.7-7.2
	c-13.1-3.7-30.4-6.8-49.4-11.3c-28.6-6.7-61.3-16.5-90.1-36.3c-14.4-9.9-27.8-22.3-39.2-38c-11.4-15.7-20.8-34.8-27.1-58
	c-1-3.8-2-8.4-3-14c-1.7-9.6-3.4-21.8-5-35.7c-4.8-41.7-7.3-88.3-10.3-141l1.7-11.1L408.6,456.9L408.6,456.9z"/>
<path id="Shape_55_" class="st56" d="M261.4,745.8l33.5,16.8H563v50.3H311.7c0,0-49.4,20.2-50.3,83.8h-16.8v-50.3L261.4,745.8
	L261.4,745.8z"/>
<path id="Shape_56_" class="st14" d="M505.2,342.8v124.4c-34.4,0-62.2-27.9-62.2-62.2S470.8,342.8,505.2,342.8"/>
<polyline id="Shape_57_" class="st14" points="563,779.3 512.8,762.5 294.9,762.5 261.4,745.8 255.9,779.3 "/>
<path id="Shape_58_" class="st14" d="M505.2,342.8v124.4c34.4,0,62.2-27.9,62.2-62.2S539.6,342.8,505.2,342.8"/>
<path id="Shape_59_" class="st14" d="M462.3,447.9c11.2,10.6,26.3,17.2,42.9,17.2c16.6,0,31.7-6.5,42.9-17.2l19.3,120.9
	c0,0-29.2,69.6-57.1,64.1c-1.7,0.2-3.4,0.3-5.1,0.3c-1.7,0-3.4-0.1-5.1-0.3c-28,5.5-57.1-64.1-57.1-64.1L462.3,447.9L462.3,447.9z"
	/>
<path id="Shape_60_" class="st56" d="M749.5,745.8l-33.5,16.8H447.9v50.3h251.3c0,0,49.4,20.2,50.3,83.8h16.8v-50.3L749.5,745.8
	L749.5,745.8z"/>
<polygon id="Shape_61_" class="st14" points="565.9,779.4 755,779.5 749.5,745.6 715.9,762.6 566.5,762.6 546.7,425.8 505.2,425.8 
	505.2,762.6 447.6,762.6 447.6,779.3 505.2,779.4 505.2,819.9 "/>
<polygon id="Shape_62_" class="st2" points="431.2,1006.5 422.9,812.8 507.2,812.8 506.9,1006.5 "/>
<polygon id="Shape_63_" class="st1" points="505.8,1006.5 507.2,812.8 591.6,812.8 583,1006.5 "/>
<polygon id="Shape_64_" class="st1" points="480,1006.5 473.7,812.8 490.5,812.8 494.9,1006.5 "/>
<polygon id="Shape_65_" class="st2" points="519.6,1006.5 524,812.8 540.7,812.8 534.7,1006.2 "/>
<path id="Shape_66_" class="st15" d="M443,404.9c0-27.3,18.2-50.4,42.7-58.8c-14.1,13.1-22.9,31.8-22.9,52.6
	c0,29.5,17.7,54.8,43.1,65.9v2.6l-0.6,312.1L443,762.5l19.4-312.4C450.5,438.8,443,422.7,443,404.9"/>
<path id="Shape_67_" class="st56" d="M293.4,798.7h36.8c0,0,0,0,0,0h136.1v0h78.3v0h136.1c0,0,0,0,0,0h36.8c0,0,40.2,16.5,48.7,66.3
	v31.6h-16.8c-0.7-51.4-33.1-74.4-45.5-81.4c0.1,0.1,0.1,0.1,0.2,0.2c-2.9-1.7-4.8-2.5-5.1-2.6H563H448H311.9
	c-0.3,0.1-2.2,0.9-5.1,2.6c0.1-0.1,0.1-0.1,0.2-0.2c-12.4,7-44.8,30-45.5,81.4h-16.8V865C253.2,815.2,293.4,798.7,293.4,798.7"/>
<g id="Clipped_22_" transform="translate(160.890370, 149.302233)" class="st57">
	<g transform="translate(-0.000000, 0.000000)">
		<g id="Rectangle-path_22_">
		</g>
		<defs>
			<filter id="Adobe_OpacityMaskFilter_21_" filterUnits="userSpaceOnUse" x="282.2" y="443.3" width="62.4" height="186.8">
				<feColorMatrix  type="matrix" values="1 0 0 0 0  0 1 0 0 0  0 0 1 0 0  0 0 0 1 0"/>
			</filter>
		</defs>
		<mask maskUnits="userSpaceOnUse" x="282.2" y="443.3" width="62.4" height="186.8" id="mask-48_2_">
			<g class="st58">
				<rect id="path-47_2_" x="282.2" y="443.3" class="st4" width="62.4" height="186.8"/>
			</g>
		</mask>
		<path id="Shape_68_" class="st59" d="M339.8,487.5c1.6,0.2,3.2,0.3,4.8,0.3l-0.2,142.3l-62.2-16.8l10.8-169.9
			C304.1,464,322.3,491,339.8,487.5"/>
	</g>
</g>
<g id="Clipped_23_" transform="translate(169.875375, 96.147951)" class="st60">
	<g transform="translate(-0.000000, 0.000000)">
		<g id="Rectangle-path_23_">
		</g>
		<defs>
			<filter id="Adobe_OpacityMaskFilter_22_" filterUnits="userSpaceOnUse" x="309.6" y="281.8" width="51.9" height="51.9">
				<feColorMatrix  type="matrix" values="1 0 0 0 0  0 1 0 0 0  0 0 1 0 0  0 0 0 1 0"/>
			</filter>
		</defs>
		<mask maskUnits="userSpaceOnUse" x="309.6" y="281.8" width="51.9" height="51.9" id="mask-50_2_">
			<g class="st61">
				<rect id="path-49_2_" x="309.6" y="281.8" class="st4" width="51.9" height="51.9"/>
			</g>
		</mask>
		<path id="Shape_69_" class="st62" d="M361.5,307.7c0,14.3-11.6,26-26,26c-14.3,0-26-11.6-26-26c0-14.3,11.6-26,26-26
			C349.9,281.8,361.5,293.4,361.5,307.7"/>
	</g>
</g>
<path id="Shape_70_" class="st14" d="M498,395.4c0,8.6,7,15.5,15.5,15.5c8.6,0,15.5-7,15.5-15.5c0-8.6-7-15.5-15.5-15.5
	C505,379.9,498,386.8,498,395.4"/>
<path id="Shape_71_" class="st15" d="M534.1,460.2c5.3-2.7,10.1-6.2,14.4-10.3l0.7,4.1C545.8,456.3,540.1,459.1,534.1,460.2"/>
<path id="Shape_72_" class="st15" d="M462.1,449.7c8.8,8.3,30.2,16.8,42.7,19l0.4,72.9c0,0,27.7,40.8,58,0.9l5.7,29.7
	c0,0-30.6,70.6-58.6,65.1c-1.7,0.2-8.6,0.2-10.2,0c-28,5.5-57.8-66.9-57.8-66.9L462.1,449.7L462.1,449.7z"/>
<rect id="Rectangle-path_24_" x="505.1" y="779.4" class="st56" width="61.9" height="24.8"/>
</svg>
