<?xml version="1.0" encoding="utf-8"?>
<!-- Generator: Adobe Illustrator 19.2.1, SVG Export Plug-In . SVG Version: 6.00 Build 0)  -->
<svg version="1.1" id="Layer_1" xmlns="http://www.w3.org/2000/svg" xmlns:xlink="http://www.w3.org/1999/xlink" x="0px" y="0px"
	 viewBox="0 0 1000 1000" style="enable-background:new 0 0 1000 1000;" xml:space="preserve">
<style type="text/css">
	.st0{fill:#104274;}
	.st1{fill:#60C1D7;}
	.st2{fill:#A4D5E4;}
	.st3{fill:#B51C17;}
	.st4{opacity:0.15;fill:#3B180E;}
	.st5{fill:#B71D1D;}
	.st6{opacity:0.15;fill:#104274;}
</style>
<rect x="0" y="0" transform="matrix(-1 -4.484958e-11 4.484958e-11 -1 1000.9999 999.9998)" class="st0" width="1001" height="1000"/>
<path class="st1" d="M703.1,659c-43.9-140-174.8-242-329.4-242C183.1,417,28.5,571.4,28.5,762.1s154.5,345.1,345.1,345.1
	c98.3,0,187.1-41.1,249.9-107.1h288.6h27.6h61.1V659H703.1z"/>
<path class="st0" d="M1001,668v823.8c-57.4-125.2-89.5-264.7-89.5-411.9S943.6,793.2,1001,668z"/>
<path class="st2" d="M226.7,241.1c0-89.1-26.5-171.9-72-241.1L1001,0v668.2c-84.9,80.6-179.2,151-281.3,209.4
	c-1.8,1.1-3.7,2.1-5.5,3.2c-0.2,0.1-0.4,0.2-0.6,0.3h0c-28,15.4-60,24.1-94,24.1c-1.6,0-3.1,0-4.7-0.1c-1.6,0-3.1,0.1-4.7,0.1
	c-33.9,0-65.9-8.7-94-24.1h0c-0.2-0.1-0.4-0.2-0.6-0.3c-1.9-1-3.7-2.1-5.5-3.2c-152.9-87.5-288.5-202.1-401.2-337.4
	C179.4,458.7,226.7,356.7,226.7,241.1z"/>
<path class="st3" d="M454.7,517.2c41.8-32.6,67.9-41.8,71.4-42.6c3.5-0.8,20.9-8.4,45.3,0c24.4,8.4,24.4,8.4,24.4,8.4
	s10.3,3.6,20.3,4.2c10-0.6,20.3-4.2,20.3-4.2s0,0,24.4-8.4c24.4-8.4,41.8-0.8,45.3,0c3.5,0.8,29.6,10,71.4,42.6s88.9,34.5,86.3,36.9
	c-13.1,12.5-87.2-6-101.1-11c-13.9-5-98.4-10-122.8,0.8c-5.9,2.6-11,4.2-15.2,5.2c-1.5,0.6-4.4,1.2-8.5,1.1c-4.2,0.1-7-0.5-8.5-1.1
	c-4.3-0.9-9.3-2.5-15.2-5.2c-24.4-10.9-108.9-5.8-122.8-0.8c-13.9,5-88.1,23.5-101.1,11C365.8,551.6,412.9,549.7,454.7,517.2z"/>
<path class="st4" d="M454.7,517.2c41.8-32.6,67.9-41.8,71.4-42.6c3.5-0.8,20.9-8.4,45.3,0c24.4,8.4,24.4,8.4,24.4,8.4
	s10.3,3.6,20.3,4.2c10-0.6,20.3-4.2,20.3-4.2s0,0,24.4-8.4c24.4-8.4,41.8-0.8,45.3,0c3.5,0.8,29.6,10,71.4,42.6s88.9,34.5,86.3,36.9
	c-13.1,12.5-87.2-6-101.1-11c-13.9-5-98.4-10-122.8,0.8c-5.9,2.6-11,4.2-15.2,5.2c-1.5,0.6-4.4,1.2-8.5,1.1c-4.2,0.1-7-0.5-8.5-1.1
	c-4.3-0.9-9.3-2.5-15.2-5.2c-24.4-10.9-108.9-5.8-122.8-0.8c-13.9,5-88.1,23.5-101.1,11C365.8,551.6,412.9,549.7,454.7,517.2z"/>
<g>
	<path class="st5" d="M368.4,554.1c66.1-7.7,122-37.9,191.7-18.7c23.2,6.4,41.4,8,56,7.5v87.5c-7,0.4-14.4,2-22.9,3.1
		C476.3,648.5,362.1,554.8,368.4,554.1z"/>
	<path class="st5" d="M672.1,535.4c69.7-19.2,125.6,11,191.7,18.7c6.3,0.7-108,94.5-224.8,79.4c-8.5-1.1-18.2-2.4-25.3-2.9l2.3-87.7
		C630.8,543.3,649,541.8,672.1,535.4z"/>
</g>
<path class="st6" d="M154.7,0.1l449.8,0c-7.4,33.4-14.4,65.3-14.4,89.8c0,37.7-57.9,172.2-57.4,210.4c1,67.9,99.4,35.8,70,102.2
	C578,458.3,605,467.3,616,487c11,19.6,9.5,45.6,0,63.1c-5.8,10.6-28.3,42.4,0,81.4c9,12.4-65.3,54.8-66.4,134.9
	c-1.6,120.8,66.1,135,66.4,138.7l-29.6-1.4c-24.6-3.2-47.4-10.3-68.3-21.7c0,0-5.1-2.8-6.9-3.9C357.8,790.7,222,675.3,109,540.1
	c68.4-81.6,117.9-182.5,117.9-298C226.9,153.1,200.3,69.1,154.7,0.1z"/>
</svg>
